<?xml version="1.0" encoding="utf-8"?>
<!-- Generator: Adobe Illustrator 12.0.0, SVG Export Plug-In . SVG Version: 6.00 Build 51448)  -->
<!DOCTYPE svg PUBLIC "-//W3C//DTD SVG 1.1//EN" "http://www.w3.org/Graphics/SVG/1.1/DTD/svg11.dtd" [
	<!ENTITY ns_svg "http://www.w3.org/2000/svg">
	<!ENTITY ns_xlink "http://www.w3.org/1999/xlink">
]>
<svg  version="1.1" id="Layer_1" xmlns="&ns_svg;" xmlns:xlink="&ns_xlink;" width="192.756" height="101.756"
	 viewBox="0 0 192.756 101.756" overflow="visible" enable-background="new 0 0 192.756 101.756" xml:space="preserve">
<g>
	<g>
		<polygon fill-rule="evenodd" clip-rule="evenodd" fill="#FFFFFF" points="0,0 192.756,0 192.756,101.756 0,101.756 0,0 		"/>
	</g>
	<path fill-rule="evenodd" clip-rule="evenodd" fill="#ED1C24" d="M54.045,41.628c0,0,1.57,0.429,4.141-3.284
		c0,0,1.428-1.57-0.571-3.284c0,0-1.713-2.142-4.141-1.285c-0.285,0-2.712,1.142-2.57,4.712
		C50.904,38.487,51.047,41.2,54.045,41.628L54.045,41.628z"/>
	<path fill-rule="evenodd" clip-rule="evenodd" fill="#ED1C24" d="M151.7,12.074c0,0,1.57,1.285,2.998-0.713
		c0,0,1.999-1.713,1.143-4.141c0-0.286-1.143-2.712-4.427-2.427c0,0-2.569,0.143-2.854,3.141
		C148.56,7.934,148.131,9.647,151.7,12.074L151.7,12.074z"/>
	<path fill-rule="evenodd" clip-rule="evenodd" fill="#ED1C24" d="M124.003,28.921c1.285-2.427,0-2.712-1-2.57l-2.569,0.714l0,0
		l-1.143,0.286v-0.714h0.143l0.857-15.99l0.285-1.856c0,0,1.285-4.14-1.999-4.568c0,0-3.854-0.428-3.569,5.71l-10.137,21.559h-0.143
		l-0.143,0.143l-7.139,1.999c0,0-3.998,0.571-4.426,4.854c0,0-0.714,2.427,2.855,1.57l4.854-1.57l0,0l0.999-0.286l-1.285,2.57l0,0
		L86.454,70.61c0,0-1.713,3.284,0.428,4.569c0,0,2.855,1.284,4.141-1.428l15.562-34.979l0.999-2.427l7.139-2.142l-0.143,1l0,0
		l-1.714,24.271c0,0-0.57,3.712,1.143,3.997c0,0,2.998,1.143,3.712-6.853l1.143-19.845l0,0l0.143-3.855l0.714-0.286l0,0l1.285-0.428
		C122.718,31.491,124.003,28.921,124.003,28.921L124.003,28.921z M115.151,28.636l-4.427,1.285v-0.143l-0.285,0.143l0.856-2.142l0,0
		l4.712-10.565L115.151,28.636L115.151,28.636z"/>
	<path fill-rule="evenodd" clip-rule="evenodd" fill="#ED1C24" d="M136.566,27.208c0,0,4.141,0.713,4.569-2.142
		c0,0,0.856-2.142-5.141-2.285c0,0-9.137-0.714-10.564,10.708c0,0-0.571,3.854,3.712,2.855c0,0,4.711-1.285,5.14-0.286
		c0,0,0.571,1.142-0.571,2.855c0,0-2.713,4.283-11.564,4.14c0,0-2.284-0.428-2.284,1.999c0,0,0,2.855,4.854,2.57
		c0,0,9.423-0.143,13.849-8.281c1.428-2.427,1.713-3.712,1.713-4.14c0-0.429,0-0.857-0.143-1.285c-0.429-1-1.285-1.713-2.427-1.999
		c-0.143,0-0.143,0-0.286,0h-0.143l0,0c-0.143,0-0.285,0-0.428,0c-0.429,0-1.143,0-2.142,0.285c0,0-1,0.286-2.428,0.286
		c-0.714,0-1.142-0.143-1.57-0.428c-0.143-0.143-0.429-0.429-0.429-0.714l0,0l0,0c0-0.143,0-0.143,0-0.143
		S130.57,27.208,136.566,27.208L136.566,27.208z"/>
	<path fill-rule="evenodd" clip-rule="evenodd" fill="#ED1C24" d="M86.168,51.194c0,0-0.714-1-2.57,0.285
		c-0.571,0.428-1.428,1.713-1.428,1.713c-0.856,1.143-2.427,2.57-2.427,2.57c-1.57,1.57-2.712,1.999-3.426,2.142l0,0h-0.143h-0.143
		h-0.143l0,0c-0.428,0-0.856-0.143-0.999-0.571c0,0,0-0.143,0-0.286l0,0c0-0.143,0-0.143,0-0.143
		c0.143-0.428,0.428-0.999,0.428-0.999c0.143-0.285,0.286-0.571,0.286-0.856c0.143-0.144,0.143-0.144,0.143-0.144
		s3.712-11.421-7.139-7.138c0,0-0.999-6.425-3.854-3.712l-3.427,3.284c0,0-1.856,1.57,0.429,3.855c0,0-5.854,13.848-11.136,12.278
		c0,0-2.285-0.285,2.998-10.993c0,0,1.428-2.713,0-4.426c0,0-0.856-0.856-3.998,0l0,0l-7.567,2.427l0,0v-1.143l0.856-15.562
		l0.429-1.999c0,0,1.285-3.998-2.142-4.568c0,0-3.712-0.286-3.57,5.854L27.632,54.62h-0.285l0,0l-7.139,1.999
		c0,0-4.141,0.714-4.426,4.997c0,0-0.713,2.427,2.713,1.428l4.997-1.428h-0.143l1-0.286l-1.142,2.57l0,0L9.215,93.739
		c0,0-1.856,3.284,0.428,4.426c0,0,2.713,1.428,4.141-1.285l15.419-34.979l1.143-2.427l6.996-2.284v1.142l0,0l-1.856,24.271
		c0,0-0.571,3.569,1.285,3.997c0,0,2.998,1,3.712-6.853l0.999-19.846l0,0l0.143-3.569l2.57-0.856l3.284-1.428
		c0,0-6.139,13.563-0.571,14.563c0,0,6.853,2.713,12.135-2.569c0,0,5.568-5.568,9.137-14.277c0,0,3.426-0.856,3.426,0.714
		c0,0,0.286,1-0.856,2.57c0,0-0.571,0.999-0.856,2.284l0,0c0,0-1.142,4.283,2.284,5.14c0,0,4.997,1.285,10.565-3.284
		c0,0,3.855-3.283,4.283-5.425C87.168,52.907,87.025,52.051,86.168,51.194L86.168,51.194z M37.769,51.622l-4.426,1.285l0,0h-0.143
		l0.856-1.999l0,0L38.626,40.2L37.769,51.622L37.769,51.622z"/>
	<path fill-rule="evenodd" clip-rule="evenodd" fill="#ED1C24" d="M179.255,25.638c0,0-5.282,1.571-8.994,3.569
		c0,0-0.144,0.143-0.429,0.285c-2.855,1.143-0.714-2.284-0.714-2.284c0.143-0.143,0.286-0.286,0.429-0.571l0,0
		c0.856-1.57,1.855-3.855,2.569-5.283c0-0.143,0.143-0.143,0.143-0.286c0.144-0.285,0.144-0.428,0.144-0.571
		c0.428-0.571,1.713-3.569-1-3.998c0,0-0.999-0.428-1.998,0.428c-0.144,0-0.144,0.143-0.144,0.143l0,0
		c-0.143,0-0.143,0.143-0.143,0.143h-0.143c0,0.143,0,0.143,0,0.143l0,0c0-0.285,0-0.428,0-0.713c0,0-0.143-1.999-2.284-2.142
		c0,0-5.711-0.714-10.994,6.567l0,0c-2.854,3.855-5.14,8.566-4.426,13.278c0,0-1.57,2.142-4.282,1.428c0,0-1.571-0.286-0.857-2.427
		c0,0,1.285-4.568,2.855-7.138c0,0,3.712-6.853-0.143-7.139c0,0-2.57-0.571-3.569,1.856c0,0-7.853,17.561-2.284,19.702
		c0,0,5.282,2.57,11.422-2.998c0.571,0.428,2.284,1.285,5.282,0c0.429-0.143,1-0.428,1.57-0.856
		c0.571-0.286,1.285-0.714,1.856-1.142c0.714,0.428,1.855,0.714,3.427,0.143c0,0,7.281-3.569,13.991-4.283
		c0,0,3.712-0.286,3.712-4.14C184.252,27.351,184.109,24.496,179.255,25.638L179.255,25.638z M167.405,20.355
		c0,0,0,0.285-0.286,0.999c-0.57,1.571-1.428,3.569-2.569,5.568c-2.142,3.712-5.14,7.282-7.853,6.14c0,0-2.284-0.714-0.714-3.712
		c0,0,0.856-1.428,2.284-3.426l0,0l0,0c0,0,4.283-5.425,8.852-6.71c0,0,0.571-0.143,1-0.571
		C167.833,19.213,167.69,19.784,167.405,20.355L167.405,20.355z"/>
</g>
</svg>
