<svg id="Layer_1" data-name="Layer 1" xmlns="http://www.w3.org/2000/svg" viewBox="0 0 764.72 381.12"><defs><style>.cls-1{fill:#231916;fill-rule:evenodd;}</style></defs><path class="cls-1" d="M509.54,125.16c18.72,0,32.12,13.62,38.13,28.57,17.86,44.38-30,94.25-68.2,53.47-23.59-25.2-9.82-82,30.07-82Zm-82.22,45.76c0,90.6,117.09,117.36,155.9,39.56C610.42,156,570.79,91,509.54,91,466.66,91,427.32,127.44,427.32,170.92Z"/><path class="cls-1" d="M256.58,257.79h54.18c-2.33,0-4.43-3.43-4.65-6.2-.48-5.87,10.08-25.6,10.08-25.6h40.33l-10.86-23.27H327.82l12.3-26.37,43.33,81.44h61.93c-11.13,0-17.77-10-22.54-18.23L343.45,82.5Z"/><path class="cls-1" d="M674.41,264.66l25-51.6L634,89.37H573.91c3.53,2,11-1.22,21.93,19.85Z"/><path class="cls-1" d="M708.87,105.66l-28.19,59.59,22.65,41.8L761.61,89.37H706.54C710.59,89.37,715.07,93.14,708.87,105.66Z"/><path class="cls-1" d="M130.32,278.13l19.13,40.92,29-62.85c11.59-25.08,34.69-64.38,62.62-65.62h.66l-.66,0C213.17,189.32,190,150,178.48,124.94L121.08,0,101.94,40.92l63.42,138.76s18.87,10.46,29.13,10.89c-10.26.43-29.13,10.88-29.13,10.88Z"/><path class="cls-1" d="M111.44,103,92.31,62.07l-29,62.85C51.69,150,28.58,189.3.66,190.54H0l.66,0c27.92,1.23,51.08,40.51,62.61,65.61l57.41,124.94,19.13-40.93L75.23,199.42s-17.7-8.44-28-8.87c10.26-.43,27.55-8.15,27.55-8.15Z"/><polygon class="cls-1" points="120.95 140.72 132.46 165.67 143.97 190.62 132.46 215.57 120.95 240.52 109.43 215.57 97.92 190.62 109.43 165.67 120.95 140.72"/><path class="cls-1" d="M734.75,316.47h10.57L744,315.15V304.59h3.79l7.05,10.56-1.32,1.32h11.2l-9-13.33a10.5,10.5,0,0,0,4.2-3.91,10.27,10.27,0,0,0,1.52-5.46,10,10,0,0,0-.83-4.06,9.14,9.14,0,0,0-2.45-3.3,11.49,11.49,0,0,0-3.88-2.16,15.4,15.4,0,0,0-5-.77H734.75l1.32,1.32v30.35l-1.32,1.32ZM744,298v-7.92h4.45a9.3,9.3,0,0,1,2,.24,3.29,3.29,0,0,1,2.62,3.45,4.83,4.83,0,0,1-.46,2,3.42,3.42,0,0,1-1.61,1.6,5.43,5.43,0,0,1-2.56.6Z"/><polygon class="cls-1" points="676.45 309.87 663.11 309.87 663.11 284.8 664.44 283.48 653.77 283.48 655.1 284.8 655.1 315.15 653.77 316.47 676.45 316.47 677.79 317.79 677.79 308.55 676.45 309.87"/><polygon class="cls-1" points="604.89 283.48 594.74 283.48 596.09 284.8 588.25 307.58 580.58 284.8 581.93 283.48 571.34 283.48 582.75 315.15 581.39 316.47 594.65 316.47 593.3 315.15 604.89 283.48"/><polygon class="cls-1" points="523.69 316.47 534.11 316.47 532.81 315.15 532.81 304.15 543.66 304.15 544.96 305.47 544.96 296.24 543.66 297.56 532.81 297.56 532.81 290.08 544.96 290.08 546.26 291.4 546.26 282.17 544.96 283.48 523.69 283.48 524.99 284.8 524.99 315.15 523.69 316.47"/><path class="cls-1" d="M493.73,282.6a23.09,23.09,0,0,0-3.88.4,17.86,17.86,0,0,0-8.65,4.35,16.25,16.25,0,0,0-3.12,4,16.05,16.05,0,0,0-1.75,4.53,18.42,18.42,0,0,0,0,8.27,16.63,16.63,0,0,0,4.87,8.49,17.63,17.63,0,0,0,8.65,4.35,19.07,19.07,0,0,0,7.77,0,17.63,17.63,0,0,0,8.65-4.35,15.88,15.88,0,0,0,3.12-4,15.61,15.61,0,0,0,1.74-4.53,18.05,18.05,0,0,0,0-8.27,15.72,15.72,0,0,0-1.74-4.53,16.25,16.25,0,0,0-3.12-4,17.86,17.86,0,0,0-8.65-4.35,23.1,23.1,0,0,0-3.89-.4Zm0,28.15A10,10,0,0,1,490,310a9.24,9.24,0,0,1-5.29-5.55,13.56,13.56,0,0,1,0-9,9.46,9.46,0,0,1,2.13-3.43,9.28,9.28,0,0,1,3.16-2.11,10,10,0,0,1,7.51,0,9.28,9.28,0,0,1,3.16,2.11,9.6,9.6,0,0,1,2.13,3.43,13.56,13.56,0,0,1,0,9,9.24,9.24,0,0,1-5.29,5.55A10,10,0,0,1,493.73,310.75Z"/><polygon class="cls-1" points="403.81 284.8 405.11 283.48 395.14 283.48 396.44 284.8 396.44 302.18 378.01 283.48 372.37 283.48 373.67 284.8 373.67 315.15 372.37 316.47 382.35 316.47 381.04 315.15 381.04 297.78 399.91 316.47 405.11 316.47 403.81 315.15 403.81 284.8"/><polygon class="cls-1" points="360.27 309.87 346.53 309.87 346.53 302.83 357.17 302.83 358.5 304.15 358.5 295.36 357.17 296.68 346.53 296.68 346.53 290.08 359.39 290.08 360.72 291.4 360.72 282.17 359.39 283.48 337.22 283.48 338.55 284.8 338.55 315.15 337.22 316.47 360.27 316.47 361.61 317.79 361.61 308.55 360.27 309.87"/><path class="cls-1" d="M297.45,316.47h10.82l-1.35-1.32V304.59h3.88L318,315.15l-1.35,1.32h11.45l-9.19-13.33a10.71,10.71,0,0,0,4.3-3.91,10.13,10.13,0,0,0,1.56-5.46,9.83,9.83,0,0,0-.86-4.06,9,9,0,0,0-2.5-3.3,11.93,11.93,0,0,0-4-2.16,16.14,16.14,0,0,0-5.07-.77H297.45l1.35,1.32v30.35l-1.35,1.32ZM306.92,298v-7.92h4.56a9.72,9.72,0,0,1,2,.24,3.59,3.59,0,0,1,1.89,1.1,3.33,3.33,0,0,1,.79,2.35,4.85,4.85,0,0,1-.47,2,3.47,3.47,0,0,1-1.65,1.6,5.64,5.64,0,0,1-2.61.6Z"/><path class="cls-1" d="M287.71,316.47l-11-31.67,1.39-1.32H264.81l1.3,1.32-12.4,31.67h10.15l-1.31-1.32,2.57-6.82h11.19l2.21,6.82-1.4,1.32Zm-20.33-14.29,3.65-9.81,3.2,9.81Z"/><path class="cls-1" d="M449.13,316.47,438.08,284.8l1.4-1.32H426.23l1.3,1.32-12.4,31.67h10.15L424,315.15l2.57-6.82h11.18l2.21,6.82-1.4,1.32ZM428.8,302.18l3.65-9.81,3.2,9.81Z"/><path class="cls-1" d="M644.14,316.47l-11-31.67,1.4-1.32H621.23l1.31,1.32-12.4,31.67h10.15L619,315.15l2.57-6.82h11.18l2.21,6.82-1.4,1.32ZM623.8,302.18l3.66-9.81,3.2,9.81Z"/><path class="cls-1" d="M705.19,282.6a22.89,22.89,0,0,0-3.88.4,16.85,16.85,0,0,0-4.52,1.52,17.26,17.26,0,0,0-4.14,2.83,16.49,16.49,0,0,0-3.12,4,16,16,0,0,0-1.74,4.53,18.05,18.05,0,0,0,0,8.27,15.9,15.9,0,0,0,1.74,4.53,16.11,16.11,0,0,0,3.12,4,17.59,17.59,0,0,0,4.14,2.84,17.17,17.17,0,0,0,4.52,1.51,19,19,0,0,0,7.76,0,17.11,17.11,0,0,0,4.51-1.51,17.45,17.45,0,0,0,4.15-2.84,16.07,16.07,0,0,0,3.11-4,15.65,15.65,0,0,0,1.75-4.53,18.05,18.05,0,0,0,0-8.27,15.76,15.76,0,0,0-1.75-4.53,16.45,16.45,0,0,0-3.11-4,17.12,17.12,0,0,0-4.15-2.83,16.79,16.79,0,0,0-4.51-1.52,23,23,0,0,0-3.88-.4Zm0,28.15a9.93,9.93,0,0,1-3.75-.72,9.29,9.29,0,0,1-5.3-5.55,13.73,13.73,0,0,1,0-9,9.48,9.48,0,0,1,2.14-3.43,9.18,9.18,0,0,1,3.16-2.11,10,10,0,0,1,7.5,0A9.28,9.28,0,0,1,712.1,292a9.48,9.48,0,0,1,2.14,3.43,13.73,13.73,0,0,1,0,9,9.29,9.29,0,0,1-5.3,5.55A9.93,9.93,0,0,1,705.19,310.75Z"/></svg>