<svg id="Layer_1" data-name="Layer 1" xmlns="http://www.w3.org/2000/svg" viewBox="0 0 218.19 218.23"><defs><style>.cls-1{fill:#ed1c24;}.cls-1,.cls-2,.cls-3,.cls-4{fill-rule:evenodd;}.cls-2,.cls-6,.cls-7{fill:#2e3192;}.cls-3{fill:#fff200;}.cls-4{fill:#fff;}.cls-5{fill:none;stroke-miterlimit:2.61;stroke-width:1.12px;}.cls-5,.cls-7{stroke:#2e3192;}.cls-7{stroke-miterlimit:2.61;stroke-width:0.28px;}</style></defs><path class="cls-1" d="M179.16,58.69A86.85,86.85,0,0,0,39,58.69Z"/><path class="cls-2" d="M109.1,196.86A86.86,86.86,0,0,0,181,61.23H37.23A86.86,86.86,0,0,0,109.1,196.86Z"/><polygon class="cls-3" points="109.45 31.6 111.76 38.77 119.29 38.76 113.19 43.17 115.53 50.33 109.45 45.89 103.37 50.33 105.71 43.17 99.61 38.76 107.14 38.77 109.45 31.6 109.45 31.6"/><path class="cls-4" d="M109.27,73.16c-5.88.1-6.35,4.83-4,11.09,1.37,7.78,1,24.26,1.15,36.54h5.75c.3-14.39.22-33.32,1.34-36.21,2.9-8.82.54-11.49-4.23-11.42Z"/><path class="cls-4" d="M77.11,120c3.59-.59,5.55-2,6.57-3.79A23.05,23.05,0,0,1,87.05,107c.64-2.48,2.42-4.29,5-5.65l11-3.45c0,1.94,0,3.87.08,5.81a58.73,58.73,0,0,1-18.87,12.89,23.11,23.11,0,0,0-2.65,3.28,25.69,25.69,0,0,0-1,2.66c-.06.44-.52.59-.74.12-.12-.75,0-1.24-.16-2-.66.06-1.64,0-2.3.09a.4.4,0,0,1-.27-.74Z"/><path class="cls-2" d="M91.85,108.1a1.35,1.35,0,1,0-1.35-1.34,1.34,1.34,0,0,0,1.35,1.34Z"/><path class="cls-4" d="M115.14,95.76c0,2,0,4,.08,6.07,7.16,1,11.12,4.34,11.54,10.36,0,12-22.13,10.13-28.89,15.33-6.31,4.12-7.48,9.3-6.15,15a16.09,16.09,0,0,0,12.47,9.77c-.06-2-.11-4-.17-6-6.82-4-7.08-10.09-1.43-13.05,5.55-2.66,12.69-3.41,19.12-5.48,8.74-3.36,13.49-10,11.45-20.13-1.78-6.91-9-11.39-18-11.88Z"/><polygon class="cls-4" points="106.32 134.24 111.17 133.27 111.04 162.07 106.83 163.76 106.32 134.24 106.32 134.24"/><polygon class="cls-4" points="110.66 172.31 107.08 174.46 107.59 197.37 110.62 197.37 110.66 172.31 110.66 172.31"/><path class="cls-4" d="M114,149.9l.09,5.06c2.77,1.63,4.37,3.68,3,6.78-1.76,3.27-14.31,4.6-15.84,9-1.27,4.72-.2,7.94,3.58,9.4,0-1.89,0-3.77,0-5.65a5.27,5.27,0,0,1,4.38-4c6.85-.89,13.59-3.7,14.74-9.31.73-7.19-3.81-9.91-9.9-11.37Z"/><path class="cls-4" d="M113.32,180.62c0,.91,0,1.82,0,2.73a9.53,9.53,0,0,1,5,5.56c.18.67,1.41.66,1.39-.54-.4-4.11-3-6.34-6.44-7.75Z"/><path class="cls-5" d="M189.55,160.28a94.88,94.88,0,0,0-22.05-125m26.05,127.53A99.58,99.58,0,0,0,170.4,31.54M50.46,35.44A94.86,94.86,0,0,0,28.8,160.53M47.43,31.81A99.61,99.61,0,0,0,24.88,163.16m176.26,4.36a108.53,108.53,0,0,0-25.23-143M41,25.49a108.53,108.53,0,0,0-23.07,143.4m178.92-4a103.48,103.48,0,0,0-24-136.37m-127.67.2A103.49,103.49,0,0,0,21.51,165.12"/><path class="cls-6" d="M63.72,19.85l2.69,5.76,2.4-1.12a4.1,4.1,0,0,0,2.37-2.17A2.85,2.85,0,0,0,71,20.13a3.16,3.16,0,0,0-1.61-1.59,3.54,3.54,0,0,0-3.13.14l-2.51,1.17Zm-2.81-6L63.31,19l2.11-1a4.24,4.24,0,0,0,1.94-1.56,2.37,2.37,0,0,0,.06-2.37,2.62,2.62,0,0,0-1.53-1.47,4.65,4.65,0,0,0-3.4.52l-1.58.73Zm2.91,14.06L57.51,14.35l6.63-3.09a5.46,5.46,0,0,1,4.25-.45,3.32,3.32,0,0,1,2,1.72,3,3,0,0,1,.16,2.33,4.52,4.52,0,0,1-1.54,2,5.3,5.3,0,0,1,3,0,3.2,3.2,0,0,1,1.91,1.75,3.6,3.6,0,0,1,0,3.14,6.48,6.48,0,0,1-3.36,2.93l-6.78,3.17Z"/><polygon class="cls-6" points="116.83 7.37 122.17 1.32 124.31 1.39 117.73 8.83 117.44 16.77 113.82 16.65 114.09 9.19 107.85 0.84 112.13 0.98 116.83 7.37 116.83 7.37"/><polygon class="cls-6" points="139.4 20.84 136.13 19.89 140.09 6 136.65 5.01 136.93 4.05 147.14 6.99 146.87 7.95 143.37 6.95 139.4 20.84 139.4 20.84"/><polygon class="cls-6" points="149.13 23.96 156.83 28.12 156.38 29.02 145.74 23.27 152.61 9.3 163.11 14.98 162.66 15.88 155.11 11.8 152.46 17.19 159.62 21.06 159.18 21.97 152.02 18.1 149.13 23.96 149.13 23.96"/><polygon class="cls-6" points="165.2 11.96 166.92 13.17 162.01 14.38 161.07 13.71 165.2 11.96 165.2 11.96"/><polygon class="cls-6" points="154.94 10.3 158.96 8.13 160.59 8.99 161.17 13.58 160.15 13.05 159.31 9.5 155.96 10.84 154.94 10.3 154.94 10.3"/><path class="cls-7" d="M81.64,4.37,81,4.59,82.3.51l1-.35,3.51,2.46-.66.22-3-1.31Zm8.13,16.57a.85.85,0,0,1-.71-.07.84.84,0,0,1-.48-.53.89.89,0,0,1,.06-.71.92.92,0,0,1,1.25-.43.9.9,0,0,1,.41,1.26A.89.89,0,0,1,89.77,20.94Z"/><path class="cls-6" d="M77.36,13.22A7,7,0,0,1,78.7,7.07a9.87,9.87,0,0,1,6.08-3.51,8.92,8.92,0,0,1,6.59.93A7.77,7.77,0,0,1,95,9.72a7.62,7.62,0,0,1-1,6,9.18,9.18,0,0,1-6.21,3.85,9.33,9.33,0,0,1-6.44-.79,7.06,7.06,0,0,1-3.77-4.9Zm7.57-8.61a5.24,5.24,0,0,0-4.14,3.26A8.62,8.62,0,0,0,80.6,13a7.79,7.79,0,0,0,2.29,4.26,5.31,5.31,0,0,0,4.89,1.23A4.76,4.76,0,0,0,91.54,15a9,9,0,0,0,.19-4.79,8.58,8.58,0,0,0-2.07-4.19A4.82,4.82,0,0,0,84.93,4.61Z"/><polygon class="cls-6" points="27.57 180.76 37.12 171.78 38.98 173.76 35.11 182.56 43.97 179.07 45.72 180.93 36.16 189.91 34.47 188.11 42.17 180.87 31.24 185.2 36.1 174.24 28.29 181.53 27.57 180.76 27.57 180.76"/><polygon class="cls-6" points="40.66 193.99 38.75 192.42 47.09 182.3 49 183.87 40.66 193.99 40.66 193.99"/><polygon class="cls-6" points="43.86 195.8 42.98 195.17 51.16 184.66 52.98 185.97 53.1 197.32 58.77 190.11 59.64 190.74 51.46 201.25 50.55 200.59 50.43 187.42 43.86 195.8 43.86 195.8"/><polygon class="cls-6" points="56.73 204.48 54.61 203.22 61.33 191.95 63.45 193.22 56.73 204.48 56.73 204.48"/><path class="cls-6" d="M60.24,204.66l1.17-.21a4,4,0,0,0,.57,1.62,3,3,0,0,0,1.34,1,2.7,2.7,0,0,0,1.84.08,2.18,2.18,0,0,0,1.4-1.2,2.44,2.44,0,0,0-.51-2.8l-2.3-2.43a3.13,3.13,0,0,1-.26-3.37,3.71,3.71,0,0,1,2.32-2,5,5,0,0,1,5.37,1.73,3.66,3.66,0,0,1,.8,2.21l-1,.13a3.56,3.56,0,0,0-.39-1.6,2.72,2.72,0,0,0-1.39-1.18,2.22,2.22,0,0,0-1.8,0,2.44,2.44,0,0,0-1.26,1.27,2.2,2.2,0,0,0,.66,2.47c.75.84,1.51,1.66,2.27,2.49a3.38,3.38,0,0,1,.21,3.5,3.81,3.81,0,0,1-2.49,2.1,5,5,0,0,1-3.42-.2,6.19,6.19,0,0,1-2.15-1.42,3.8,3.8,0,0,1-.94-2.15Z"/><polygon class="cls-6" points="73.76 211.86 71.28 211.06 75.51 199.46 72.92 198.62 73.21 197.81 80.91 200.32 80.62 201.12 77.99 200.26 73.76 211.86 73.76 211.86"/><path class="cls-6" d="M80.64,214l-2.53-.71,4-12.56L88,202.39a3.73,3.73,0,0,1,2.47,1.88,3.62,3.62,0,0,1,.16,2.88A2.76,2.76,0,0,1,88.92,209a5.52,5.52,0,0,1-2.81.14L87.79,216,85,215.25l-1.58-7.46.17.05a4.87,4.87,0,0,0,2.88.11,2.59,2.59,0,0,0,1.69-1.78,2.77,2.77,0,0,0,0-2.11,3.28,3.28,0,0,0-2.25-1.58l-1.37-.39L80.64,214Z"/><polygon class="cls-6" points="97.23 209.44 101.08 204.47 102.54 204.58 97.8 210.69 97.32 217.35 94.86 217.18 95.31 210.92 91.35 203.78 94.26 203.99 97.23 209.44 97.23 209.44"/><path class="cls-6" d="M109.44,211.36a9.32,9.32,0,0,0,.81,4,3.31,3.31,0,0,0,3.18,2,3.26,3.26,0,0,0,3.1-2.11,9.29,9.29,0,0,0,.69-4,9.41,9.41,0,0,0-.83-4,3.34,3.34,0,0,0-3.21-2,3.25,3.25,0,0,0-3.08,2.11,9.43,9.43,0,0,0-.66,4Zm-2.66,0a6.93,6.93,0,0,1,1.74-5,6,6,0,0,1,4.64-2.05,6.22,6.22,0,0,1,4.74,1.92,7.41,7.41,0,0,1,.22,9.84,6.1,6.1,0,0,1-4.67,2.08,6.17,6.17,0,0,1-4.72-1.93,7,7,0,0,1-2-4.9Z"/><polygon class="cls-6" points="124.26 217.12 121.79 217.19 121.41 204.08 128.93 203.86 128.96 204.71 123.9 204.86 124.05 209.91 128.66 209.78 128.69 210.63 124.07 210.76 124.26 217.12 124.26 217.12"/><polygon class="cls-6" points="140.01 213.92 137.62 214.56 134.23 201.9 136.61 201.26 138.1 206.81 143.3 205.41 141.81 199.86 144.2 199.22 147.59 211.89 145.21 212.53 143.57 206.43 138.37 207.82 140.01 213.92 140.01 213.92"/><polygon class="cls-6" points="153.54 208.05 159.42 205.44 159.77 206.21 151.63 209.84 146.3 197.85 154.32 194.28 154.67 195.06 148.9 197.63 150.96 202.25 156.43 199.81 156.78 200.59 151.31 203.03 153.54 208.05 153.54 208.05"/><path class="cls-6" d="M163.79,198.47l-3.94-3.36.59,5.15,3.35-1.79Zm5.8,1.78-2.25,1.2-2.83-2.39-4,2.12.48,3.65-1.05.55L158.33,191l11.26,9.28Z"/><polygon class="cls-6" points="177.36 194.86 171.03 199.29 163.51 188.55 165.53 187.13 172.45 197.01 176.76 193.99 177.36 194.86 177.36 194.86"/><polygon class="cls-6" points="180.74 191.43 178.76 193.02 170.5 183.62 168.42 185.29 167.85 184.63 174.02 179.69 174.59 180.34 172.48 182.03 180.74 191.43 180.74 191.43"/><polygon class="cls-6" points="186.48 186.52 184.66 188.41 174.63 178.73 176.46 176.84 180.85 181.09 184.82 176.97 180.43 172.72 182.25 170.84 192.28 180.52 190.46 182.41 185.63 177.75 181.66 181.86 186.48 186.52 186.48 186.52"/></svg>