<svg id="Layer_1" data-name="Layer 1" xmlns="http://www.w3.org/2000/svg" viewBox="0 0 70.66 20.19"><defs><style>.cls-1{fill:#231f20;}</style></defs><path class="cls-1" d="M10.27,0a12.13,12.13,0,0,1,7.06,2.38L16.21,3.9A9,9,0,0,0,10.38,2c-6.32,0-8.32,5.49-8.32,8.3a8.23,8.23,0,0,0,8.69,8,9.45,9.45,0,0,0,5.29-2l1.4,1.56a12.92,12.92,0,0,1-7,2.36A10.12,10.12,0,0,1,0,10.1,10.25,10.25,0,0,1,10.27,0"/><polygon class="cls-1" points="18.31 0.4 20.38 0.4 20.38 18.02 28.1 18.02 28.1 19.77 18.31 19.77 18.31 0.4"/><polygon class="cls-1" points="28.94 0.4 39.27 0.4 39.27 2.15 31 2.15 31 9.21 39.27 9.21 39.27 10.96 31 10.96 31 18.02 39.27 18.02 39.27 19.77 28.94 19.77 28.94 0.4"/><polygon class="cls-1" points="55.81 19.77 57.88 19.77 49.61 0.4 48.06 0.4 39.63 19.77 41.69 19.77 44.27 13.65 51.5 13.65 51.5 11.93 45 11.93 48.77 2.98 55.81 19.77"/><path class="cls-1" d="M58.37.4V19.77h2.07V2.15H63.5c.88,0,3.81.5,3.81,3.43s-2.19,3.63-4,3.63H60.81l7.31,10.56h2.54L64.28,11s5.09-.25,5.09-5.09S65.78.4,63.31.4Z"/></svg>