<?xml version="1.0" encoding="UTF-8" standalone="no"?>
<svg
   xmlns:dc="http://purl.org/dc/elements/1.1/"
   xmlns:cc="http://creativecommons.org/ns#"
   xmlns:rdf="http://www.w3.org/1999/02/22-rdf-syntax-ns#"
   xmlns:svg="http://www.w3.org/2000/svg"
   xmlns="http://www.w3.org/2000/svg"
   version="1.1"
   id="svg24637"
   viewBox="0 0 300 64.575547"
   height="64.575546"
   width="300">
  <defs
     id="defs24639" />
  <metadata
     id="metadata24642">
    <rdf:RDF>
      <cc:Work
         rdf:about="">
        <dc:format>image/svg+xml</dc:format>
        <dc:type
           rdf:resource="http://purl.org/dc/dcmitype/StillImage" />
        <dc:title></dc:title>
      </cc:Work>
    </rdf:RDF>
  </metadata>
  <g
     transform="translate(-517.0633,-718.05005)"
     id="layer1">
    <g
       transform="matrix(6.1049311,0,0,-6.1049311,549.47928,767.31564)"
       id="g24125">
      <path
         id="path24127"
         style="fill:#8e9197;fill-opacity:1;fill-rule:nonzero;stroke:none"
         d="m 0,0 c -0.292,-0.195 -0.74,-0.346 -1.247,-0.356 -0.498,-0.013 -0.93,0.141 -1.218,0.413 -0.386,0.367 -0.584,1 -0.584,1.873 0,0.851 0.243,2.287 1.834,2.398 C -0.999,4.344 -0.42,4.389 0,4.4 L 0,0 Z m 0,7.906 0,-1.758 -1.124,0 c -3.328,0 -4.022,-2.486 -4.022,-4.277 0,-1.311 0.4,-2.449 1.118,-3.205 0.619,-0.645 1.448,-0.99 2.401,-0.99 0.638,0 1.176,0.119 1.627,0.357 l 0.012,-0.18 2.196,0 0,10.053 -2.208,0" />
    </g>
    <g
       transform="matrix(6.1049311,0,0,-6.1049311,585.89519,747.90807)"
       id="g24129">
      <path
         id="path24131"
         style="fill:#8e9197;fill-opacity:1;fill-rule:nonzero;stroke:none"
         d="M 0,0 C 0.224,0.795 0.774,1.305 1.655,1.305 2.475,1.305 3.035,0.73 3.102,0 L 0,0 Z M 5.259,-0.037 C 5.175,0.902 4.83,1.697 4.268,2.25 3.639,2.871 2.757,3.188 1.655,3.188 c -1.271,0 -2.317,-0.471 -3.029,-1.36 -0.634,-0.789 -0.983,-1.893 -0.983,-3.111 0,-2.033 1.15,-4.215 4.373,-4.215 1.235,0 2.441,0.383 3.133,0.728 l 0,2.036 C 4.764,-2.947 3.585,-3.584 1.975,-3.555 0.794,-3.535 0.158,-2.9 -0.041,-1.781 l 5.321,0 0.003,0.082 c 0.012,0.75 -0.003,1.383 -0.024,1.662" />
    </g>
    <g
       transform="matrix(6.1049311,0,0,-6.1049311,653.33636,728.56764)"
       id="g24133">
      <path
         id="path24135"
         style="fill:#8e9197;fill-opacity:1;fill-rule:nonzero;stroke:none"
         d="m 0,0 c -0.714,0 -1.502,-0.268 -1.806,-0.381 l -0.01,0.182 -2.199,0 0,-8.295 2.209,0 0,6.213 c 0.477,0.298 1.216,0.423 1.814,0.283 0.592,-0.139 0.883,-0.514 0.883,-1.588 l 0,-4.908 2.203,0 0,5.234 C 3.094,-1.067 2.084,0 0,0" />
    </g>
    <g
       transform="matrix(6.1049311,0,0,-6.1049311,802.58972,729.77032)"
       id="g24137">
      <path
         id="path24139"
         style="fill:#8e9197;fill-opacity:1;fill-rule:nonzero;stroke:none"
         d="m 0,0 0,-6.213 c -0.47,-0.301 -1.214,-0.424 -1.812,-0.287 -0.591,0.139 -0.881,0.512 -0.881,1.592 l 0,4.908 -2.207,0 0,-5.236 c 0,-2.192 1.013,-3.258 3.094,-3.258 0.715,0 1.506,0.265 1.806,0.381 l 0.013,-0.182 2.194,0 L 2.207,0 0,0" />
    </g>
    <g
       transform="matrix(6.1049311,0,0,-6.1049311,697.0843,719.05006)"
       id="g24141">
      <path
         id="path24143"
         style="fill:#8e9197;fill-opacity:1;fill-rule:nonzero;stroke:none"
         d="m 0,0 -2.206,0 0,-7.199 c 0,-0.99 0.172,-1.684 0.539,-2.174 0.432,-0.58 1.138,-0.859 2.155,-0.859 0.817,0 1.604,0.179 2.064,0.324 l 0,1.986 C 2.267,-7.994 1.393,-8.182 0.887,-8.182 0.566,-8.182 0.34,-8.115 0.201,-7.976 0,-7.771 0,-7.422 0,-7.086 l 0,3.504 c 0.865,0 1.948,-0.06 2.552,-0.125 l 0,1.949 L 0,-1.758 0,0" />
    </g>
    <g
       transform="matrix(6.1049311,0,0,-6.1049311,746.78454,748.77497)"
       id="g24145">
      <path
         id="path24147"
         style="fill:#8e9197;fill-opacity:1;fill-rule:nonzero;stroke:none"
         d="m 0,0 c -0.518,0.094 -1.131,0.203 -1.485,0.398 -0.172,0.094 -0.263,0.227 -0.261,0.374 0.006,0.144 0.105,0.283 0.252,0.355 0.321,0.178 0.904,0.264 1.79,0.102 C 1.147,1.076 2.091,0.748 2.383,0.625 l 0,2.002 C 1.363,3.133 0.455,3.33 -0.567,3.315 -1.516,3.297 -2.336,3.049 -2.94,2.6 -3.576,2.119 -3.934,1.434 -3.97,0.615 c -0.065,-1.377 0.799,-2.201 2.79,-2.588 0.414,-0.082 1.017,-0.205 1.273,-0.312 0.258,-0.102 0.411,-0.272 0.411,-0.465 0.002,-0.185 -0.129,-0.359 -0.336,-0.447 -0.373,-0.156 -0.98,-0.133 -1.366,-0.092 -1.14,0.115 -2.23,0.518 -2.625,0.693 l 0,-2.056 c 0.674,-0.342 1.737,-0.737 2.998,-0.719 1.444,0.029 3.236,0.459 3.559,2.363 0.124,0.707 -0.002,1.346 -0.364,1.85 C 1.928,-0.549 1.247,-0.234 0,0" />
    </g>
  </g>
</svg>
