<?xml version="1.0" encoding="utf-8"?>
<!-- Generator: Adobe Illustrator 19.0.0, SVG Export Plug-In . SVG Version: 6.00 Build 0)  -->
<svg version="1.1" id="layer" xmlns="http://www.w3.org/2000/svg" xmlns:xlink="http://www.w3.org/1999/xlink" x="0px" y="0px"
	 viewBox="-153 -46 652 652" style="enable-background:new -153 -46 652 652;" xml:space="preserve">
<style type="text/css">
	.st0{fill:#005BAA;}
</style>
<g transform="translate(0 -1)">
	<path class="st0" d="M449.6,163.4h-3.5v-6.8h4.4c0.6,0,1.2,0,1.7,0.1c0.6,0,1.1,0.3,1.5,0.5c0.5,0.2,0.8,0.6,1.1,1
		c0.2,0.4,0.5,0.9,0.5,1.7c0,0.8-0.2,1.5-0.5,2c-0.2,0.4-0.7,0.8-1.2,1c-0.5,0.2-1.2,0.4-1.8,0.4C451,163.4,450.3,163.4,449.6,163.4
		 M457,164.3c1.1-0.9,1.6-2.4,1.6-4.3c0-2.1-0.7-3.6-1.9-4.6c-1.3-1-3.1-1.5-5.7-1.5h-8.3v21.5h3.4v-9.3h3.6l5.8,9.3h3.6l-6.2-9.5
		C454.5,165.7,455.9,165.2,457,164.3 M463.9,170.8c-0.8,1.9-1.9,3.6-3.2,5c-1.4,1.4-3,2.5-4.9,3.3c-1.8,0.8-3.8,1.2-6,1.2
		c-2.1,0-4.2-0.4-6-1.2c-1.9-0.8-3.5-1.9-4.9-3.3c-1.3-1.4-2.4-3.1-3.2-5c-0.8-1.9-1.2-4-1.2-6.3c0-2.2,0.3-4.3,1.2-6.2
		c0.7-1.9,1.9-3.6,3.2-4.9c1.4-1.4,3-2.5,4.9-3.3c1.8-0.8,3.9-1.2,6-1.2c2.1,0,4.2,0.4,6,1.2c1.9,0.8,3.5,1.9,4.8,3.3
		c1.4,1.4,2.4,3,3.2,4.9c0.8,1.9,1.2,3.9,1.2,6.2C465.1,166.8,464.7,168.9,463.9,170.8 M467,157.3c-1-2.2-2.3-4.2-4-5.8
		c-1.7-1.6-3.7-2.9-5.9-3.8c-2.2-0.9-4.6-1.4-7.1-1.4c-2.5,0-4.9,0.5-7.2,1.4c-2.2,0.9-4.2,2.2-5.9,3.8c-1.7,1.6-3,3.6-4,5.8
		c-1,2.2-1.5,4.6-1.5,7.2c0,2.7,0.5,5.1,1.5,7.4c1,2.3,2.3,4.2,4,5.9c1.7,1.6,3.6,2.9,5.8,3.9c2.3,0.9,4.7,1.4,7.2,1.4
		c2.5,0,4.9-0.5,7.2-1.4c2.2-0.9,4.2-2.2,5.9-3.9c1.7-1.6,3-3.6,4-5.9c0.9-2.2,1.5-4.7,1.5-7.4C468.4,161.9,467.9,159.5,467,157.3"
		/>
	<path class="st0" d="M407.3,359.9l-49-71.2l34.7-49.7h-13.3c-6.2,0-10.3,2.2-13.6,7.3c-1.1,1.6-14.9,22.1-18.3,27.2
		c-3.2-4.8-16-23.5-19-27.8c-3.1-4.5-7.7-6.7-13.6-6.7H315h-13.2l35.4,49.7l-33.8,49.7H325l22.7-34.2c4.9,7.1,29.3,42.9,45.5,66.6
		C377.5,381,358.8,387,338.8,387H-10.4c-55.4,0-100.7-45.3-100.7-100.7c0-55.4,45.3-100.7,100.7-100.7h349.2
		c55.4,0,100.7,45.3,100.7,100.7C439.5,315.3,427.1,341.5,407.3,359.9 M338.8,166.8H-10.4c-65.9,0-121.2,53.6-121.2,119.5
		c0,65.9,55.3,119.5,121.2,119.5h349.2c65.9,0,121.2-53.6,121.2-119.5C460,220.4,404.7,166.8,338.8,166.8 M195.7,256.3
		c-16.1,0.8-24.9,12-24.9,31.5v50.7h-18.7v-99.4l1,0c4.4,0,9,0.2,12.3,2.3c2.9,1.9,4.5,5,5.1,9.6c6.1-9.8,17.5-13.8,36.3-12.8l0.9,0
		l0.1,0.9c0,0.3,0,0.9,0,2.2c0,0.9-0.1,2,0,2.9C207.7,251.8,203.7,255.9,195.7,256.3 M131.9,239.1h2v65.7c0,11.5-4,21-11.7,27.3
		c-6.9,5.7-16.7,8.8-27.8,8.8h-0.1c-11,0-20.7-3-27.7-8.7c-7.7-6.3-11.8-15.8-11.9-27.3v-65.9h1c7.4,0,17.9,0,17.9,15.3v48.2
		c0.1,14.2,7,21.3,20.6,21.3h0.1c13.7,0,20.7-7.2,20.6-21.4v-48.3c0-5.1,1.3-9,3.8-11.5C122.4,239,128.2,239.1,131.9,239.1
		 M-14.4,324L-14.4,324c-8.8,0-16.9-3.5-23.1-9.8c-6.2-6.4-9.6-14.8-9.6-23.8c0-18.6,14.6-33.8,32.6-33.8h0.1
		c18.9,0,32.6,14.2,32.7,33.7C18.2,310.7,5.4,324-14.4,324 M22.1,208.2c-2.7,2.4-4,5.9-4,10.3v33.2c-7.9-7.9-20.1-12.5-33.3-12.5
		h-0.1c-13.7,0-26.4,5.2-35.8,14.6c-9.5,9.5-14.6,22.5-14.6,36.6c0,14.1,5.3,27.1,14.8,36.5c9.4,9.3,22.1,14.4,35.7,14.4h0.1
		c12.5,0,24.1-4.6,33.2-12.9v10h18.5V204.6l-0.9-0.1C35.3,204.5,27.2,203.6,22.1,208.2 M255.2,255.8L255.2,255.8
		c14,0,25.7,8.3,29.1,20.6c0.4,1.5,0.3,2.9-0.4,3.8c-0.6,0.8-1.7,1.2-3.3,1.2l-56.9,0.1C227.3,266.4,240,255.9,255.2,255.8
		 M255.5,323.7L255.5,323.7c-15.5,0-28.4-10.6-31.8-26l61.6-0.1c8.1,0,12.4-3.6,14.7-6.5c3.4-4.5,4.3-11,2.5-17.4v0
		c-6.3-21.6-24.5-35.1-47.5-35.1h-0.1c-28.8,0.1-50.5,22.1-50.4,51.2c0,14.2,5.2,27.1,14.6,36.4c9.3,9.2,22,14.3,36,14.3h0.1
		c21.1,0,39.5-12.6,46.9-32l0.2-0.5h-19.5C276.4,318.3,267.1,323.7,255.5,323.7"/>
	<path class="st0" d="M449.6,163.4h-3.5v-6.8h4.4c0.6,0,1.2,0,1.7,0.1c0.6,0,1.1,0.3,1.5,0.5c0.5,0.2,0.8,0.6,1.1,1
		c0.2,0.4,0.5,0.9,0.5,1.7c0,0.8-0.2,1.5-0.5,2c-0.2,0.4-0.7,0.8-1.2,1c-0.5,0.2-1.2,0.4-1.8,0.4C451,163.4,450.3,163.4,449.6,163.4
		 M457,164.3c1.1-0.9,1.6-2.4,1.6-4.3c0-2.1-0.7-3.6-1.9-4.6c-1.3-1-3.1-1.5-5.7-1.5h-8.3v21.5h3.4v-9.3h3.6l5.8,9.3h3.6l-6.2-9.5
		C454.5,165.7,455.9,165.2,457,164.3 M463.9,170.8c-0.8,1.9-1.9,3.6-3.2,5c-1.4,1.4-3,2.5-4.9,3.3c-1.8,0.8-3.8,1.2-6,1.2
		c-2.1,0-4.2-0.4-6-1.2c-1.9-0.8-3.5-1.9-4.9-3.3c-1.3-1.4-2.4-3.1-3.2-5c-0.8-1.9-1.2-4-1.2-6.3c0-2.2,0.3-4.3,1.2-6.2
		c0.7-1.9,1.9-3.6,3.2-4.9c1.4-1.4,3-2.5,4.9-3.3c1.8-0.8,3.9-1.2,6-1.2c2.1,0,4.2,0.4,6,1.2c1.9,0.8,3.5,1.9,4.8,3.3
		c1.4,1.4,2.4,3,3.2,4.9c0.8,1.9,1.2,3.9,1.2,6.2C465.1,166.8,464.7,168.9,463.9,170.8 M467,157.3c-1-2.2-2.3-4.2-4-5.8
		c-1.7-1.6-3.7-2.9-5.9-3.8c-2.2-0.9-4.6-1.4-7.1-1.4c-2.5,0-4.9,0.5-7.2,1.4c-2.2,0.9-4.2,2.2-5.9,3.8c-1.7,1.6-3,3.6-4,5.8
		c-1,2.2-1.5,4.6-1.5,7.2c0,2.7,0.5,5.1,1.5,7.4c1,2.3,2.3,4.2,4,5.9c1.7,1.6,3.6,2.9,5.8,3.9c2.3,0.9,4.7,1.4,7.2,1.4
		c2.5,0,4.9-0.5,7.2-1.4c2.2-0.9,4.2-2.2,5.9-3.9c1.7-1.6,3-3.6,4-5.9c0.9-2.2,1.5-4.7,1.5-7.4C468.4,161.9,467.9,159.5,467,157.3"
		/>
</g>
</svg>
