<?xml version="1.0" encoding="UTF-8" standalone="no"?>
<svg
   xmlns:dc="http://purl.org/dc/elements/1.1/"
   xmlns:cc="http://creativecommons.org/ns#"
   xmlns:rdf="http://www.w3.org/1999/02/22-rdf-syntax-ns#"
   xmlns:svg="http://www.w3.org/2000/svg"
   xmlns="http://www.w3.org/2000/svg"
   version="1.1"
   id="svg3606"
   viewBox="0 0 300 117.32154"
   height="117.32154"
   width="300">
  <defs
     id="defs3608" />
  <metadata
     id="metadata3611">
    <rdf:RDF>
      <cc:Work
         rdf:about="">
        <dc:format>image/svg+xml</dc:format>
        <dc:type
           rdf:resource="http://purl.org/dc/dcmitype/StillImage" />
        <dc:title></dc:title>
      </cc:Work>
    </rdf:RDF>
  </metadata>
  <g
     transform="translate(-691.33184,-707.48164)"
     id="layer1">
    <g
       transform="matrix(3.1516126,0,0,-3.1516126,837.80208,737.21617)"
       id="g3514">
      <path
         id="path3516"
         style="fill:#ed1c24;fill-opacity:1;fill-rule:nonzero;stroke:none"
         d="M 0,0 C 1.531,0 2.762,1.234 2.762,2.762 2.762,4.283 1.531,5.521 0,5.521 -1.52,5.521 -2.76,4.283 -2.76,2.762 -2.76,1.234 -1.52,0 0,0" />
    </g>
    <g
       transform="matrix(3.1516126,0,0,-3.1516126,911.83441,770.83727)"
       id="g3518">
      <path
         id="path3520"
         style="fill:#e70012;fill-opacity:1;fill-rule:nonzero;stroke:none"
         d="M 0,0 C -0.84,0.737 0.66,2.519 0.66,2.519 1.041,1.527 1.611,0.369 2.691,-0.125 1.99,-0.416 0.66,-0.58 0,0 M 5.041,4.461 C 5.49,4.504 5.92,4.308 6.121,3.883 6.25,3.58 6.08,3.183 5.871,2.892 5.371,3.017 4.881,3.14 4.631,3.637 4.461,3.963 4.67,4.418 5.041,4.461 M -35.49,14.834 c 0.531,0.871 1.611,0.535 1.82,-0.205 0.721,-2.578 0.33,-6.088 -2.059,-9.715 -0.781,3.051 -1.181,7.57 0.239,9.92 m -16.28,-27.229 c -0.289,-0.205 -0.57,-0.205 -0.869,-0.041 -0.381,0.221 -0.24,0.662 -0.16,0.952 0.24,0.535 0.61,1.101 1.119,1.488 0.131,-0.735 0.491,-1.735 -0.09,-2.399 M 22.641,3.219 C 18.451,2.686 17.141,1.937 10.121,2.519 10.34,3.133 10.26,4.744 9.83,5.66 9.311,6.791 8.211,7.646 7.141,8.158 6.061,8.68 4.471,8.637 3.621,8.254 3.141,8.539 2.57,8.599 2.061,8.455 0.91,8.129 -0.74,7.553 -2.389,5.553 -2.939,4.883 -3.629,3.547 -3.92,2.586 -4.648,1.664 -6.049,0.666 -6.879,0.267 c -1.131,-0.554 -4.32,-1.777 -5.6,-0.679 -0.58,0.494 -0.861,1.119 -0.74,1.857 0.119,0.788 0.459,1.491 1.16,2.028 1.09,0.839 2.219,0.23 3.35,-0.045 0.16,-0.043 0.311,-0.063 0.48,-0.063 1.149,0 2.081,0.93 2.081,2.077 0,0.882 -0.571,1.562 -1.321,1.929 -2.31,1.137 -5.01,1.031 -7.32,-0.719 -1.69,-1.281 -2.52,-3.179 -2.6,-5.122 -2.259,-1.85 -3.49,-2.278 -4.461,-1.46 -1.339,1.117 -0.259,3.76 -0.189,5.416 0,0.09 0.01,0.178 0.01,0.272 0,1.103 -0.891,1.996 -1.991,1.996 -0.919,0 -1.689,-0.619 -1.929,-1.461 -0.699,-2.523 -2.41,-6.539 -5.199,-6.539 -1.022,0 -1.782,0.369 -2.422,0.957 5.41,7.019 4.631,11.498 4.371,13.453 -0.381,2.764 -2.17,4.789 -3.891,5.379 -1.82,0.621 -3.789,-0.004 -5,-1.278 -3.59,-3.769 -3.219,-11.646 -0.779,-17.013 -0.029,-0.031 -0.051,-0.061 -0.09,-0.096 -2.41,-2.394 -5.84,-3.611 -9.01,-4.762 l 0,0.093 c -0.031,2.083 1.299,8.158 1.61,10.002 0.019,0.118 0.019,0.259 0.019,0.384 0,1.215 -0.98,2.203 -2.199,2.203 -0.9,0 -1.69,-0.561 -2.031,-1.341 -0.51,-1.174 -0.709,-2.801 -1.319,-3.975 -1.531,-2.932 -4.59,-4.905 -7.98,-4.832 -1.94,0.039 -3.811,1.021 -4.75,2.807 -1.651,3.142 -0.621,7.208 1.49,9.835 1.699,2.106 4.26,3.294 6.981,2.807 1.589,-0.278 2.398,-1.424 3.269,-2.078 0.379,-0.278 0.85,-0.469 1.35,-0.469 1.24,0 2.24,1.002 2.24,2.237 0,0.54 -0.17,1.045 -0.52,1.423 -0.67,0.715 -1.23,1.176 -2.15,1.693 -3.141,1.764 -6.74,1.876 -9.77,0.627 -5.201,-2.15 -8.25,-7.779 -7.89,-13.22 0.25,-3.723 2.299,-7.442 5.869,-9.01 3.76,-1.652 8.51,-0.662 11.611,1.486 0,0 -0.08,-1.582 -0.121,-2.437 -3.26,-1.691 -4.99,-3.844 -4.92,-6.859 0.041,-1.858 1.371,-3.666 3.1,-4.294 1.82,-0.662 3.91,-0.105 5.281,1.114 2.151,1.895 1.539,4.629 1.119,7.418 3.491,1.375 7.94,2.81 11.26,5.607 0.91,-0.875 1.93,-1.439 2.951,-1.746 2.86,-0.852 5.83,0.125 7.899,2.232 0.57,-0.869 1.521,-1.851 2.521,-2.203 2.35,-0.827 5.08,-0.07 6.889,1.334 0.791,-0.785 1.48,-1.455 2.49,-1.816 3.551,-1.283 6.981,0.739 10.041,2.228 0.779,-1.035 1.869,-1.726 3.049,-2.025 3.271,-0.828 6.531,0.536 8.76,2.809 9.23,-0.699 14.172,0.682 14.97,0.806 1.09,0.166 1.881,1.147 1.741,2.248 -0.151,1.1 -1.151,1.877 -2.25,1.737" />
    </g>
  </g>
</svg>
