<svg xmlns="http://www.w3.org/2000/svg" viewBox="0 0 158.15 61.91"><title>Masan Group logo</title><path d="M490.29,502.16s17.83-12.81,45.76-12.93c25.9-.11,30.18,8.14,38,10.79,0,0-3.8,5.82-5.78,9.63s-13.32,17.93-26.5,22.21c0,0,18.71-15.72,21.55-27.57,0,0-26.87-20.43-73.26-1.92" transform="translate(-432.92 -481.05)" style="fill:#f36f21"/><path d="M521.55,489.11c42-10.64,59.59,9.56,59.59,9.56A60.39,60.39,0,0,1,561,521.3c11.28-1.28,21.79-13,24-16.69s6.16-9.17,6.16-9.17c-7.12-3.22-13.13-12-35.93-14.22-16.3-1.59-33.6,7.88-33.6,7.88" transform="translate(-432.92 -481.05)" style="fill:#034ea2"/><path d="M454.12,528V512.92a58.92,58.92,0,0,1-.15-6.31l-.06,0-7.1,21.11h-3.41l-7.25-21h-.09c0,2.33.1,5.52.09,6.28v15h-3.24V502.39h4.8L445.1,524h.07l7.17-21.31h5V528Z" transform="translate(-432.92 -481.05)" style="fill:#034ea2"/><path d="M465.15,515c.21-1.42.7-3.56,4.21-3.58,2.94,0,4.35,1,4.37,3s-.87,2.12-1.62,2.19l-5.11.65c-5.13.67-5.58,4.26-5.57,5.81,0,3.16,2.42,5.3,5.8,5.29a8.32,8.32,0,0,0,6.64-3c.12,1.42.55,2.82,3.3,2.81a6.24,6.24,0,0,0,1.69-.36v-2.26a4.84,4.84,0,0,1-1,.14c-.63,0-1-.3-1-1.09l-.05-10.6c0-4.73-5.37-5.13-6.85-5.13-4.54,0-7.47,1.76-7.6,6.17Zm8.42,6.37c0,2.48-2.85,4.35-5.74,4.36-2.35,0-3.38-1.17-3.39-3.19,0-2.32,2.42-2.8,4-3,3.86-.52,4.64-.78,5.15-1.18Z" transform="translate(-432.92 -481.05)" style="fill:#034ea2"/><path d="M492.47,514.47c0-1.17-.47-3.12-4.44-3.1-1,0-3.7.34-3.7,2.64,0,1.53,1,1.88,3.4,2.46l3.14.77c3.89.94,5.27,2.35,5.27,4.87,0,3.83-3.15,6.14-7.37,6.16-7.39,0-7.94-4.21-8-6.44h3c.11,1.45.55,3.78,5,3.75,2.24,0,4.27-.89,4.26-3,0-1.47-1-2-3.72-2.63l-3.65-.88c-2.59-.62-4.31-1.91-4.34-4.46,0-4.09,3.39-6,7.05-6,6.66,0,7.17,4.87,7.17,5.78Z" transform="translate(-432.92 -481.05)" style="fill:#034ea2"/><path d="M502.6,514.75c.2-1.42.68-3.58,4.2-3.6,2.91,0,4.33,1.06,4.33,3s-.86,2.13-1.61,2.18l-5.1.66c-5.11.65-5.57,4.27-5.56,5.79,0,3.19,2.41,5.31,5.79,5.31a8.34,8.34,0,0,0,6.63-3c.11,1.41.53,2.83,3.28,2.8a5.87,5.87,0,0,0,1.68-.35l0-2.26a6.5,6.5,0,0,1-1,.15c-.62,0-1-.32-1-1.1l0-10.61c0-4.72-5.35-5.11-6.83-5.11-4.53,0-7.44,1.76-7.56,6.16Zm8.36,6.49c0,2.47-2.82,4.36-5.74,4.37-2.35,0-3.37-1.18-3.39-3.18,0-2.34,2.44-2.8,4-3,3.87-.51,4.65-.8,5.14-1.2Z" transform="translate(-432.92 -481.05)" style="fill:#034ea2"/><path d="M534.55,527.71h-3v-11.5c-.13-3.2-1.07-4.83-4.13-4.81-1.77,0-4.88,1.15-4.7,6.15v10.16h-3.24l-.07-18.56h2.72l0,2.66h.07a6.85,6.85,0,0,1,5.67-3.19c2.91,0,6.58,1.15,6.6,6.45Z" transform="translate(-432.92 -481.05)" style="fill:#034ea2"/><path d="M468,533.85a1.19,1.19,0,0,1,.07.34.6.6,0,0,1-.19.46.81.81,0,0,1-.51.21l-.54-.18q-.45-.15-.75-.23a2.37,2.37,0,0,0-.59-.08,2.27,2.27,0,0,0-1.47.49,3.1,3.1,0,0,0-.92,1.27,4.89,4.89,0,0,0-.35,1.64,5.25,5.25,0,0,0,.56,2.41,2.27,2.27,0,0,0,1.91,1.26.77.77,0,0,1,.27,0l.43-.06.37-.1.37-.15L467,541a1,1,0,0,1,.4-.11.54.54,0,0,1,.42.19.69.69,0,0,1,.17.48,1,1,0,0,1-.82,1,5.35,5.35,0,0,1-1.69.27,4.1,4.1,0,0,1-2.28-.63,4.15,4.15,0,0,1-1.5-1.71,5.52,5.52,0,0,1-.55-2.35,7.3,7.3,0,0,1,.25-1.93,5,5,0,0,1,.76-1.63,3.74,3.74,0,0,1,1.34-1.14,4.33,4.33,0,0,1,1.91-.45,4.73,4.73,0,0,1,1.68.27,1.72,1.72,0,0,1,.91.62" transform="translate(-432.92 -481.05)" style="fill:#034ea2"/><path d="M470.75,537.9a4.78,4.78,0,0,0,.63,2.45,2.13,2.13,0,0,0,2,1.1,2.3,2.3,0,0,0,1.48-.48,2.78,2.78,0,0,0,.88-1.28,5.69,5.69,0,0,0,.31-1.78,5.11,5.11,0,0,0-.3-1.78,2.94,2.94,0,0,0-.89-1.29,2.21,2.21,0,0,0-1.44-.48,2.3,2.3,0,0,0-1.44.46,2.82,2.82,0,0,0-.91,1.27,5.12,5.12,0,0,0-.31,1.82m-1.59,0a5.74,5.74,0,0,1,.54-2.53,4.26,4.26,0,0,1,1.51-1.76,4,4,0,0,1,4.42.06,4.39,4.39,0,0,1,1.47,1.8,5.8,5.8,0,0,1,.51,2.43,5.89,5.89,0,0,1-.51,2.46,4.25,4.25,0,0,1-1.47,1.79,4.11,4.11,0,0,1-4.49,0,4.31,4.31,0,0,1-1.48-1.8,5.85,5.85,0,0,1-.51-2.44" transform="translate(-432.92 -481.05)" style="fill:#034ea2"/><path d="M479.44,534.07a.79.79,0,0,1,.21-.58.7.7,0,0,1,.52-.21.73.73,0,0,1,.53.21.78.78,0,0,1,.22.59v.14l0,0a3,3,0,0,1,1.13-.91,3.31,3.31,0,0,1,1.43-.32,3.46,3.46,0,0,1,1.63.4,3,3,0,0,1,1.21,1.21,4,4,0,0,1,.46,2V542a.68.68,0,0,1-.22.54.77.77,0,0,1-.53.19.73.73,0,0,1-.51-.19.69.69,0,0,1-.21-.53v-5.36a2.16,2.16,0,0,0-.65-1.67,2.21,2.21,0,0,0-1.55-.6,2.32,2.32,0,0,0-1.09.26,2,2,0,0,0-.82.79,2.41,2.41,0,0,0-.31,1.25v5.05a.81.81,0,0,1-.2.59.68.68,0,0,1-.51.21.74.74,0,0,1-.54-.22.77.77,0,0,1-.23-.58Z" transform="translate(-432.92 -481.05)" style="fill:#034ea2"/><path d="M488.69,541.75a1.05,1.05,0,0,1-.44-.77.7.7,0,0,1,.2-.49.64.64,0,0,1,.49-.21,1,1,0,0,1,.46.13,6.25,6.25,0,0,1,.57.37,3.06,3.06,0,0,0,.49.31,3,3,0,0,0,1.34.36,2.88,2.88,0,0,0,1.37-.32,1.06,1.06,0,0,0,.6-1A1.24,1.24,0,0,0,493,539a9.34,9.34,0,0,0-1.39-.65q-1-.4-1.55-.68a3.05,3.05,0,0,1-1-.79,1.94,1.94,0,0,1-.42-1.28,2.36,2.36,0,0,1,.39-1.31,2.79,2.79,0,0,1,1.11-1,4,4,0,0,1,1.64-.4,5,5,0,0,1,1.71.3,3.57,3.57,0,0,1,1.22.66,1.1,1.1,0,0,1,.38.74.65.65,0,0,1-.21.47.78.78,0,0,1-.5.23,4.06,4.06,0,0,1-.89-.41c-.39-.22-.67-.38-.86-.46a1.78,1.78,0,0,0-.69-.15,2,2,0,0,0-1.28.35,1.16,1.16,0,0,0-.46.86,1.34,1.34,0,0,0,.42.75,2.92,2.92,0,0,0,.78.52q.44.2,1.07.41c.42.14.71.25.87.32a3.77,3.77,0,0,1,1.54,1,2.2,2.2,0,0,1,.47,1.42,2.72,2.72,0,0,1-.42,1.37,2.86,2.86,0,0,1-1.19,1,4.49,4.49,0,0,1-2,.41,4.67,4.67,0,0,1-3.14-1.06" transform="translate(-432.92 -481.05)" style="fill:#034ea2"/><path d="M496.81,533.76a.74.74,0,0,1,.21-.56.71.71,0,0,1,.52-.21.74.74,0,0,1,.53.2.73.73,0,0,1,.22.56V539a2.75,2.75,0,0,0,.58,1.85,2.16,2.16,0,0,0,1.74.69q2.38,0,2.38-2.53v-5.22a.74.74,0,0,1,.21-.56.71.71,0,0,1,.51-.21.74.74,0,0,1,.53.2.73.73,0,0,1,.22.56v5.3a4.35,4.35,0,0,1-.4,1.86,3.14,3.14,0,0,1-1.27,1.38,4.23,4.23,0,0,1-2.22.53,4,4,0,0,1-2.11-.51,3.14,3.14,0,0,1-1.25-1.37,4.36,4.36,0,0,1-.4-1.88Z" transform="translate(-432.92 -481.05)" style="fill:#034ea2"/><path d="M506.53,533.81a.7.7,0,0,1,.22-.53.76.76,0,0,1,.54-.21.68.68,0,0,1,.51.2.84.84,0,0,1,.2.61v.3h.94a2.69,2.69,0,0,1,2.29-1.15,2.75,2.75,0,0,1,2.4,1.62,3.7,3.7,0,0,1,1.29-1.26,3.26,3.26,0,0,1,1.53-.36,3,3,0,0,1,1.52.44,3,3,0,0,1,1.1,1.21,3.92,3.92,0,0,1,.41,1.84v5.58a.74.74,0,0,1-.22.57.74.74,0,0,1-.53.21.7.7,0,0,1-.5-.22.76.76,0,0,1-.22-.56v-5.54a2.57,2.57,0,0,0-.27-1.21,1.78,1.78,0,0,0-.72-.76,2.08,2.08,0,0,0-1-.25,2.2,2.2,0,0,0-1.51.53,2.14,2.14,0,0,0-.6,1.69v5.5a.62.62,0,0,1-.22.51.8.8,0,0,1-.53.18.75.75,0,0,1-.5-.18.63.63,0,0,1-.22-.5v-5.34a2.48,2.48,0,0,0-.63-1.87,2.18,2.18,0,0,0-1.57-.6,2.85,2.85,0,0,0-1.12.26,1.84,1.84,0,0,0-.8.74,2.45,2.45,0,0,0-.3,1.28v5.57a.75.75,0,0,1-.22.57.73.73,0,0,1-.52.21.7.7,0,0,1-.51-.22.75.75,0,0,1-.22-.56Z" transform="translate(-432.92 -481.05)" style="fill:#034ea2"/><path d="M522.43,537.42h5.42a3.31,3.31,0,0,0-.7-2.13,2.38,2.38,0,0,0-1.86-.83,2.53,2.53,0,0,0-1.94.78,3.25,3.25,0,0,0-.79,2.18m-1.59.47a6.14,6.14,0,0,1,.56-2.34,4.52,4.52,0,0,1,1.46-1.79,3.92,3.92,0,0,1,4.43,0,4.44,4.44,0,0,1,1.49,1.78,5.34,5.34,0,0,1,.53,2.31q0,.78-.88.78h-6a3.22,3.22,0,0,0,.41,1.62,2.5,2.5,0,0,0,1.05,1,3.23,3.23,0,0,0,1.46.33,3.91,3.91,0,0,0,2.58-1,1.26,1.26,0,0,1,.6-.29.49.49,0,0,1,.41.2.78.78,0,0,1,.15.47.9.9,0,0,1-.23.58,4.46,4.46,0,0,1-1.5,1,5.2,5.2,0,0,1-2.09.42,4.42,4.42,0,0,1-2-.44,3.84,3.84,0,0,1-1.39-1.17,5,5,0,0,1-.77-1.58,6.65,6.65,0,0,1-.26-1.72l0-.06v0" transform="translate(-432.92 -481.05)" style="fill:#034ea2"/><path d="M531,534a.83.83,0,0,1,.21-.59.69.69,0,0,1,.52-.22.72.72,0,0,1,.53.22.81.81,0,0,1,.22.6v.81h0a4.3,4.3,0,0,1,.87-1.13,1.77,1.77,0,0,1,1.13-.53.85.85,0,0,1,.59.23.76.76,0,0,1,.26.58.69.69,0,0,1-.26.6,2.4,2.4,0,0,1-.76.33,3.19,3.19,0,0,0-.65.23,2.54,2.54,0,0,0-1.2,2.4v4.66a.84.84,0,0,1-.2.6.68.68,0,0,1-.51.21.73.73,0,0,1-.54-.22.86.86,0,0,1-.22-.63Z" transform="translate(-432.92 -481.05)" style="fill:#034ea2"/></svg>