<?xml version="1.0" encoding="UTF-8" standalone="no"?>
<svg xmlns:sketch="http://www.bohemiancoding.com/sketch/ns" xmlns="http://www.w3.org/2000/svg" height="44px" width="162px" version="1.1" xmlns:xlink="http://www.w3.org/1999/xlink" viewBox="0 0 162 44"><!-- Generator: Sketch 3.3.1 (12002) - http://www.bohemiancoding.com/sketch -->
 <title>logo_motul_cmyk</title>
 <desc>Created with Sketch.</desc>
 <rect width="162" fill="#ED252F" height="44"/>
 <g id="Page-1" fill-rule="evenodd" sketch:type="MSPage" fill="none">
  <g id="logo_motul_cmyk" fill="#fff" sketch:type="MSLayerGroup">
   <path id="Fill-2" sketch:type="MSShapeGroup" d="m45.414 7.5568v29.04h-10.278l0.568-12.672-5.589 12.672h-6.853l-1.957-12.859-3.316 12.833h-10.548l8.622-29.014 11.177-0.0002 1.739 11.796 4.99-11.796 11.445-0.0002"/>
   <path id="Fill-3" sketch:type="MSShapeGroup" d="m102.97 16.763l-4.615-0.186-2.366 19.994h-11.182l2.544-19.954-4.248 0.146-7.134-9.2186h27.971l-0.97 9.2186"/>
   <path id="Fill-4" sketch:type="MSShapeGroup" d="m117.24 7.5444l-2.08 18.031c-0.07 1.089 0.44 2.178 1.42 2.642 1.01 0.373 2.27 0.222 3.06-0.527 0.7-0.594 0.95-1.398 1.14-2.241l2.49-17.905 10.68 0.0004-2.31 19.862c-0.5 2.833-1.83 5.511-4.39 7.317-3.69 2.64-8.62 3.043-13.39 2.393-3.79-0.686-8.11-3.115-9.35-6.91-0.53-1.367-0.44-3.013-0.44-4.507l2.21-18.155 10.96 0.0004"/>
   <path id="Fill-5" sketch:type="MSShapeGroup" d="m145.57 27.394h8.78l-2.59 9.177h-18.7l3.89-29.027 11.11 0.0004-2.49 19.85"/>
   <path id="Fill-6" sketch:type="MSShapeGroup" d="m72.368 8.6207l1.107 0.8406 6.536 8.2757c0.728 1.396 0.758 3.173 0.694 4.855-0.093 5.562-3.787 10.757-8.938 13.09-6.283 2.927-14.684 1.557-19.609-3.232-4.358-4.078-5.243-10.952-2.969-16.239 2.653-5.88 8.904-9.5526 15.348-9.2689 2.779 0.0598 5.462 0.5267 7.831 1.6786zm-6.757 7.9643c-2.369-0.315-4.612 0.775-5.811 2.86-1.01 1.743-1.264 4.167-0.191 5.942 0.759 1.491 2.339 2.52 4.012 2.674 2.178 0.187 4.106-0.868 5.242-2.674 1.168-1.678 1.234-4.419 0.283-6.221-0.631-1.369-2.116-2.332-3.535-2.581z"/>
  </g>
 </g>
</svg>
