<?xml version="1.0" encoding="utf-8"?>
<!-- Generator: Adobe Illustrator 24.2.0, SVG Export Plug-In . SVG Version: 6.00 Build 0)  -->
<svg version="1.1" id="Layer_1" xmlns="http://www.w3.org/2000/svg" xmlns:xlink="http://www.w3.org/1999/xlink" x="0px" y="0px"
	 viewBox="0 0 841.9 396" style="enable-background:new 0 0 841.9 396;" xml:space="preserve">
<style type="text/css">
	.st0{fill-rule:evenodd;clip-rule:evenodd;fill:#D72D21;}
	.st1{fill-rule:evenodd;clip-rule:evenodd;fill:#D82C21;}
	.st2{fill-rule:evenodd;clip-rule:evenodd;fill:#D53025;}
	.st3{fill-rule:evenodd;clip-rule:evenodd;fill:#FDFAF9;}
	.st4{fill:#EC2227;}
	.st5{fill:#4B4B4D;}
</style>
<g>
	<path class="st0" d="M212,362.1c9.4,10.9,32,9.6,40.3,1.6c6.1-5.9,8.5-13.3,9.7-21.3c1-7.3,1.1-14.7,1-22.1c0-15.6,0-31.2,0-46.8
		c0-1.9-0.2-3.5,2.6-3.4c16.9,0.1,33.8-1,50.6,0.8c13.3,1.5,25.7,5.2,34.8,15.9c4,4.7,6.6,10.1,9.3,15.6c0.3,0.6,0.3,1.4,1.9,1.6
		c0-1.6,0-3.2,0-4.8c0-8.9,0.1-17.9-0.1-26.8c0-2.4,0.5-3.3,3.1-3.3c20.5,0.1,40.9,0.1,61.4,0c2.3,0,3.1,0.6,3.1,3
		c0.2,8.8,0.2,8.8-8.6,8.8c-11.9,0-23.8,0.1-35.7,0c-2.7,0-3.5,0.8-3.4,3.4c0.1,9.5,0,19-0.2,28.6c-0.1,3.1,0.6,4.1,3.9,4
		c12.6-0.2,25.2,0,37.8-0.2c3.4-0.1,4.2,1,4.1,4.2c-0.2,7.7-0.1,7.7-7.7,7.7c-11.5,0-23.1,0.1-34.6,0c-2.5,0-3.6,0.4-3.6,3.3
		c0.2,10.9,0.1,21.9,0,32.8c0,2.3,0.6,3,3,3c16.1-0.1,32.1-0.1,48.2,0c3.1,0,3.1-1.5,3.1-3.7c0-30.2,0-60.5-0.1-90.7
		c0-3.4,0.9-3.9,4.2-4.4c8.6-1.4,13.5,2.9,18.6,9.1c18.6,22.8,37.8,45.3,56.7,67.8c0.5,0.6,1.1,1.2,1.8,1.9c0.9-1.5,0.5-2.9,0.5-4.3
		c0-23.6,0.1-47.1-0.1-70.7c0-2.9,0.6-3.8,3.7-3.8c33.7,0.1,67.4,0.1,101,0c3.3,0,3.9,1,3.9,4c-0.2,8.2-0.1,8.2-8.1,8.2
		c-7.3,0-14.5,0.2-21.8-0.1c-3.3-0.1-3.9,1-3.9,4c0.1,30.1,0,60.2,0.1,90.3c0,3.1-0.7,4.1-3.9,3.9c-4.9-0.3-9.8-0.2-14.6,0
		c-2.7,0.1-3.4-0.8-3.3-3.4c0.1-30,0.1-60,0.1-90c0-5.9,0.5-5.1-5.1-5.2c-9.3-0.1-18.6,0.1-27.8-0.1c-3,0-3.8,0.9-3.8,3.9
		c0.1,30.2,0,60.5,0.1,90.7c0,3.4-1.1,3.7-4.1,4.1c-8.9,1.2-14.6-2.2-20.3-9.3c-18.2-22.7-37.2-44.8-55.9-67.1
		c-0.7-0.9-1.3-2-2.6-2.3c-0.8,1.2-0.5,2.6-0.5,3.8c0,23.9-0.1,47.8,0.1,71.8c0,2.9-0.6,3.8-3.7,3.8c-26.8-0.4-53.5-0.6-80.3-0.7
		c-2.7,0-3.3-0.9-3.3-3.5c0.1-11.4,0.1-22.8,0.1-34.3c-1.8,0-1.6,1.4-2,2.2c-3.1,7.4-6.5,14.5-12.3,20.2c-7.6,7.4-17,11.1-27.2,13.3
		c-17.9,3.8-35.9,3.6-54,2.1c-0.3,0-0.6-0.2-1.3-0.5c4-2.5,7.7-5.1,10.1-9c0.9-1.5,2.3-0.9,3.6-0.9c9.9,0.2,19.7,0,29.5-2.1
		c18.8-4,28.6-16.2,31.7-34.5c1.4-8.1,1.8-16.4-0.2-24.5c-3.7-15.5-14.6-22.9-29.4-25.9c-8.9-1.9-18-1.6-27-1.5c-2.8,0-3,1.5-3,3.6
		c0.1,17,0.8,34-0.2,51c-0.3,5-1,9.9-1.5,14.9c-1.2,11.8-7.6,19.8-18.1,25c-19.6,9.8-39.2,9.5-58.5-0.4c-5.7-3-10.5-7.3-13.3-13.4
		c-0.3-2.2-1.3-4.1-2.7-5.8l0-0.2c-0.6-1.6,1.2-3.8-1.4-4.8c0-0.3-0.1-0.5-0.1-0.8c0-25.2,0-50.4-0.1-75.6c0-2.7,0.7-3.9,3.6-3.6
		c2.7,0.2,5.5,0,8.2,0.1c4.7,0,5.4,0.7,5.4,5.3c0,19.4,0.1,38.7,0,58.1c0,4.8,2.3,9.2,1.6,14c-0.1,0.6,0.6,1,1.2,1.1
		c0,0.3,0.1,0.5,0.1,0.8C206.4,355,208.2,359,212,362.1z"/>
	<path class="st1" d="M103.7,325.8c0-17.1,0-34.3,0-51.4c0-1.9-0.2-3.4,2.7-3.4c15.2,0.3,30.5-0.5,45.7,0.5c2.7,0.2,5.5,0.5,8.1,0.9
		c11.4,2.1,18.3,8.9,21,20.1c3.8,16.2-0.4,27.6-14.1,37.1c-2.2,1.5-1.6,2.6-0.5,4.2c8.7,13.9,17.4,27.8,26,41.8
		c2.4,3.8,2.3,3.9-1.9,4.1c-5.1,0.3-10.2,0.5-15.3,0.9c-2.1,0.2-3.2-0.7-4.2-2.4c-7.8-13.1-15.7-26-23.5-39.1
		c-1.4-2.3-2.9-3.3-5.7-3.1c-4.6,0.3-9.3,0.2-13.9,0c-2.4-0.1-3,0.7-3,3c0.1,12.7-0.1,25.5,0.1,38.2c0,2.9-0.9,3.6-3.6,3.5
		c-4.9-0.2-9.8-0.2-14.6,0c-2.9,0.2-3.5-0.9-3.5-3.6c0.1-17.1,0.1-34.3,0.1-51.4C103.6,325.8,103.6,325.8,103.7,325.8z M125,301.7
		c0,6.2,0,12.4,0,18.6c0,1.1-0.3,2.5,1.6,2.5c7.8-0.1,15.7,1.3,23.4-0.7c3.9-1,6.9-3.1,8.9-6.6c4.8-8.5,3.6-23.2-2.6-30.8
		c-1.8-2.1-3.8-3.9-6.9-3.8c-7.3,0.1-14.5,0.1-21.8,0c-2,0-2.7,0.6-2.7,2.6C125.1,289.5,125,295.6,125,301.7z"/>
	<path class="st2" d="M206.3,349.2c-0.6-0.1-1.3-0.5-1.2-1.1c0.8-4.8-1.6-9.3-1.6-14c0.1-19.4,0-38.7,0-58.1c0-4.7-0.7-5.3-5.4-5.3
		c-2.7,0-5.5,0.2-8.2-0.1c-2.9-0.3-3.6,0.9-3.6,3.6c0.1,25.2,0.1,50.4,0.1,75.6c-1.4-3.4-1.1-7-1.1-10.5c-0.1-22,0-44-0.1-66
		c0-2.7,0.7-3.5,3.4-3.4c4,0.2,8.1,0.2,12.1,0c2.6-0.1,3.5,0.7,3.5,3.4c0.1,17.8,0.4,35.7,0.5,53.5
		C204.7,334.4,205.1,341.8,206.3,349.2z"/>
	<path class="st2" d="M653.5,372.3c-0.1,1.3,0,3.1-1.8,2.8c-1.7-0.3-1.1-2.1-1.1-3.3c0-32.2-0.1-64.5,0-96.7c0-3.3-0.7-4.8-4.3-4.4
		c-2.6,0.3-5.2,0.1-7.8-0.2c3.9-1.1,8,0.3,11.9-1.1c2.1,0.6,1.1,2.3,1.1,3.5c0.1,32.3,0.1,64.6,0.1,96.9c0,0.9-0.2,2,0.1,2.8
		C652.6,374.8,652.9,372.5,653.5,372.3z"/>
	<path class="st2" d="M212,362.1c-3.8-3.1-5.6-7.2-5.6-12.1C208,354.2,209.4,358.4,212,362.1z"/>
	<path class="st2" d="M187.9,355.6c1.4,1.7,2.4,3.6,2.7,5.8C189.1,359.8,188.3,357.8,187.9,355.6z"/>
	<path class="st2" d="M186.5,350.7c2.6,1,0.8,3.3,1.4,4.8C186.9,354,186.6,352.4,186.5,350.7z"/>
	<path class="st1" d="M820.4,368.6c0.2-2.5-0.7-3.3-3.2-3.2c-11.1,0.1-22.1,0.1-33.2,0c-5.7,0-5.1,0.9-5.1-5.2
		c0-29.4-0.1-58.8,0.1-88.1c0-3.2-0.9-4.1-4-3.9c-4,0.3-8.1,0.3-12.1,0c-3.1-0.2-4,0.7-4,3.9c0,32.1-0.2,64.2-0.3,96.4
		c0,1.1,0.3,2.3-0.6,3.8c-0.6-1.1-1.1-2-1.5-2.9c-13-30.4-26-60.7-38.9-91.1c-4.3-10.1-4.2-10.1-15.5-10c-2.4,0-3.5,0.7-4.5,3
		c-7.4,17.2-15.1,34.4-22.6,51.6c-7.2,16.5-14.4,33.1-21.5,49.7c-0.1,1.3,0,3.1-1.8,2.8c-1.7-0.3-1.1-2.1-1.1-3.3
		c0-32.2-0.1-64.5,0-96.7c0-3.3-0.7-4.8-4.3-4.4c-2.6,0.3-5.2,0.1-7.8-0.2c3.9-1.1,8,0.3,11.9-1.1c-5.6-0.1-11.2,0-16.8-0.2
		c-2.6-0.1-3.4,0.6-3.4,3.4c0.1,34.6,0.1,69.2,0,103.8c0,2.7,0.9,3.1,3.2,3.1c10.3-0.1,20.7-0.1,31,0c2.5,0,3.5-1,4.4-3.1
		c3.6-8.2,7.3-16.2,10.9-24.4c0.7-1.7,1.7-2.3,3.5-2.3c13.7,0.1,27.4,0.1,41,0c1.8,0,2.7,0.6,3.5,2.3c3.6,8,7.4,15.9,11,24
		c1.1,2.5,2.4,3.5,5.3,3.4c21.9-0.1,43.8,0,65.7-0.1c3.4,0,8,1.6,9.8-0.8C821.4,376.4,820.1,372,820.4,368.6z M719.5,336.5
		c-10.2-0.1-20.4,0-30.7-0.1c-1.4,0-3.1,0.3-2.1-2.2c5.4-13.4,10.7-26.9,16.4-41.4c2.1,4.6,4,8.5,5.7,12.3c4.2,9.3,8.3,18.7,12.5,28
		C722.3,335.4,722.7,336.5,719.5,336.5z"/>
	<path class="st3" d="M125,301.7c0-6.1,0.1-12.1,0-18.2c0-2.1,0.7-2.6,2.7-2.6c7.3,0.1,14.5,0.1,21.8,0c3.1,0,5.1,1.7,6.9,3.8
		c6.2,7.6,7.4,22.3,2.6,30.8c-2,3.5-5,5.6-8.9,6.6c-7.8,2-15.6,0.6-23.4,0.7c-1.9,0-1.6-1.4-1.6-2.5C125,314,125,307.8,125,301.7z"
		/>
	<path class="st0" d="M97.4,289.9c-3.1-8.8-8.8-15.3-18.3-17.3c-3.9-0.9-8-1.4-12-1.7c-13.3-0.9-26.6,0.2-40,0.1
		c-2.9,0-3.5,1-3.5,3.7c0.1,17,0.1,34,0.1,51c0,17.3,0.1,34.5-0.1,51.8c0,2.6,0.6,3.6,3.4,3.4c3.9-0.2,7.9-0.2,11.8,0
		c2.7,0.2,3.4-0.7,3.4-3.4c-0.1-11.8,0.1-23.6-0.1-35.3c-0.1-3.3,0.8-4.3,4.1-4.2c7.7,0.3,15.5,0.8,23.2,0.1
		c10.3-1,19.7-4.2,25.3-13.7C101,313.3,101.6,301.7,97.4,289.9z M79,317c-2.2,5.4-6.6,8-11.9,9.1c-7.5,1.5-15.1,1.1-22.7,0.6
		c-1.9-0.1-2.3-1-2.3-2.7c0.1-6.5,0-13.1,0-19.6c0-6.3,0.1-12.6,0-18.9c-0.1-2.7,0.6-3.7,3.5-3.6c6.3,0.2,12.6,0.1,18.9,0.1
		c8.8,0,13.6,3.3,16,11.7C82.7,301.5,82.1,309.4,79,317z"/>
	<g>
		<path class="st4" d="M253.2,77.2c0,0,2.6-11.9,7.8-15.2c5.2-3.3,5.1,2.1,6.8,4.7c1.6,2.6,5.5,6.8,20.3,3.9
			c14.8-2.9,29.9-15,44.3-3.5c14.4,11.5,19.5,15.8,19.5,15.8s11.7,5.3-4.4,15c-16.2,9.7-16.2,9.7-16.2,9.7s2.4,3.1-33.3-8
			c0,0-16.8,5.6-19.8,10.8c-3,5.1-3.1-0.6-2.5-3.8c0.6-3.1,1.2-14.2,11.2-17.3c10-3.1,28.4-3.1,39.5,1.4c11.1,4.5,8.8-3.1,7.7-3.8
			c-1-0.6-11.4-6.4-12.4-10.3c-1-3.9-18.1-2.3-23.2-0.2c-5.2,2.1-19.7,6.3-19.7,6.3S261,91.6,253.2,77.2z"/>
		<path class="st4" d="M363.4,60.6c0,0-13.8-8.6-10.3,5.3c0,0-3.1,19.7,16.3,16.4c19.4-3.3,92.6-7.7,102.3,7.7l9,10.4l6-20.4
			c0,0-1.3-7.8-8.4-10.5c-7-2.7-60.4-10.4-83.1-0.9C372.4,78.1,368.7,69.3,363.4,60.6z"/>
		<g>
			<path class="st5" d="M548.6,120c0,0,3.5,0.4,2-6.8c-1.5-7.2-9-20.6-19.4-7.1c-10.4,13.6-20.9,58.5-20.9,58.5s-4.6,17.7,1.4,27.9
				c0,0,12.9-70.2,30.3-73.8C542.1,118.7,546.4,118.4,548.6,120z"/>
			<path class="st5" d="M431.6,102.9c0,0-20.4,0.6-25.8,6.6c-5.4,6-18-3.5-5.6-8.8c12.4-5.2,24.6-2.5,28.2-1.4
				c3.6,1,7.8,2.3,7.8,2.3S437.9,102.4,431.6,102.9z"/>
			<path class="st5" d="M450,184.5c0,0,5.2-3.3,1.6-5.5c-3.6-2.3-4.6,1-6,0.8c-1.9-0.2-3.1-0.8-3.8-2.5c-0.7-1.7-3.8-1.6-4.8-0.2
				c-1,1.5-8.6,4.1-10,4c-1.4-0.1-6.5-0.4-6.5-0.4s1.6,3.5,5.5,3.7c3.9,0.2,9.3-3,11.7-1.9C444.4,185.5,450,184.5,450,184.5z"/>
			<path class="st5" d="M449,189.7c0,0-7.6,2.3-13.6,0c-5.9-2.4-4.9,0.2-4.2,2c0.7,1.7,11,5.7,13.9,4.1
				C448,194.2,452.9,191.1,449,189.7z"/>
			<path class="st5" d="M480.9,139.4c1.5-5.7,8.3-7.6,5.3,3.6c-3,11.2-5.1,31.4-30.8,66.2c0,0-10.3,16.3-20.9,13.5
				c-10.6-2.9-43.9-9.7-47.2-23.1c0,0-2.9-6.9,5.4-0.2c8.3,6.7,31.4,17.8,40.8,15.1c9.4-2.7,18.9-0.2,30.7-27.8
				C476,159,477.8,150.9,480.9,139.4z"/>
			<path class="st5" d="M359.6,155.9c0,0-0.9,8.2-3.8,0.7c0,0-6-17.4-6.1-24.3c-0.1-6.9-2.7-21.6,4.3-14.7c7,6.9,2.8,14.1,2.8,22.3
				C356.8,148.1,359.6,155.9,359.6,155.9z"/>
			<path class="st5" d="M357.1,182.7c-1.5-4.1-5.9-8.9-11.8-12.9c0.5-5.7,0.6-10.1,0-12c-2.3-8.2-4.3-11.8-4.3-11.8
				s-2.8,6.3-5.8,18.6c-2.6-1-5.3-1.8-8.1-2.3c-14.4-2.5-3.5,12-3.5,12s4.4-0.9,9.6-0.5c-1.7,8.6-3.3,19.1-4.3,31.7
				c-2,0.9-4.1,1.8-6.3,2.9c-22.3,10.9-9.1,25.7-8.2,29.6c0.9,3.9,5.7,4.4,6.7,2c1-2.4-1-8.7-0.4-17.9c0.3-3.8,3.4-6.6,7.8-9.2
				c-0.4,7.9-0.7,16.3-0.5,25.5c0,0,2.3,16.7,6.7-3.2c1.5-6.8,3.5-17,5.4-27.9c3.4-1.5,6.8-3.1,9.7-4.9
				C360.4,196.1,360,190.5,357.1,182.7z M341.2,200.5c1.3-7.9,2.5-15.8,3.4-22.8c2.2,1.7,3.9,4.1,4.6,7.5
				C351.3,194.9,349,197.2,341.2,200.5z"/>
			<path class="st5" d="M342.6,127.6c0,0-2.3,12.9-13.5,21.1c0,0-10.4,4.1-1.9-9.1c5.4-4.7,8.9-4.4,12.2-10.3
				C342.6,123.4,342.6,127.6,342.6,127.6z"/>
			<path class="st5" d="M428.8,115.7c3.4,0.3,5.9,1,5.9,1c0-3,1.4-1.7-6.6-4.1c-8.1-2.4-18-2.6-21.1,4.8c-3.1,7.4,4.5,5.1,4.5,5.1
				c1.4-2.1,3.2-3.6,5.1-4.6c0.7-0.4,1.1,0.1,0.6,0.7c-2.3,3.4-1.1,6,1.5,7.7c2.6,1.7,5.6,1.9,7.8-1.4c1.6-2.4,2-5.3,1.1-7.3
				C427.3,116.9,427.9,115.7,428.8,115.7z"/>
			<path class="st5" d="M479.3,114.3c2.5-0.7,4-2.2-1.6-3.8c-5.5-1.6-21.8,4.1-20.7,33.2c1.1,29-7.9,22.7-16.2,22.1
				c-4.7-0.5-10.9-4.1-8.2,1.2c2.7,5.3,7.8,2.3,7.8,2.3s5.6,0.4,12.3,0.6c6.7,0.2,9.7-16.8,10.4-29.6c0.1-4.7,0.2-10.3,1.2-13.4
				c1.7,3.5,5,4.1,7.7,2.9c2.8-1.3,4-4.2,2.4-7.9c-1-2.2-1.1-2.9-2.9-3.6C475.7,114.1,479.3,114.3,479.3,114.3z"/>
			<path class="st5" d="M488.5,217.7c0,0,2-23,13.8-9.8c0,0,4.7,5.7,1.2,6.1c-3.5,0.4-6.4-1-9.3,8.4c-2.9,9.4-5.5,19.2-11.1,26.9
				c-5.6,7.7-9.4,16-9.4,16s-6.1,5.5-4.2-4.9c1.8-10.3,6-21.2,14.9-24.9C493.4,231.8,488.5,217.7,488.5,217.7z"/>
			<path class="st5" d="M513.3,237.1c0,0-13.6,10.1-12.1,17.5c1.4,7.4-10.7-4.7-7.3-10C497.2,239.3,510.6,233,513.3,237.1z"/>
			<path class="st5" d="M513.8,223.3c0,0-5.1,6.6-7,6.4c-1.8-0.2-4.1-3.6-1.8-7.5c2.3-3.8,7.4-2.6,8.5-3.2c1.1-0.6,0.8,2.4,0.8,2.4
				L513.8,223.3z"/>
			<path class="st5" d="M485.4,46.5c0,0,0.1,14.3-10.3,4.8l-2.4-11.9c0,0-0.2-7.6,3.7-2.8C480.3,41.4,485.4,46.5,485.4,46.5z"/>
			<path class="st5" d="M455.7,45.9c0,0,7,7.2,6.5-5.6c-0.5-12.8-8.3-10.9-14.3-14.5c-6-3.6-10.3-7.6-10.3-7.6s-13.9-6.4-3.9,4.8
				C443.7,34.2,455.2,37.6,455.7,45.9z"/>
			<path class="st5" d="M437.3,49.2c0,0,0,7.5-7.5,2.6c-7.4-4.9-18.1-15.9-21.1-16.8c-3.1-0.9-23.1-6.9-25.4-9.2
				c-2.3-2.3-12-14.5,0.2-8.8c0,0,4.3,1.9,7.9,2c3.7-1.3,6-2.8,15.2,7.8c4.8,5.1,8.2,6,13.3,4.2c5.1-1.8,9.8,0.1,14.2,10.5
				C438.4,52,437.3,49.2,437.3,49.2z"/>
		</g>
	</g>
</g>
<image style="overflow:visible;" width="958" height="749" xlink:href="6F60D4B.jpg"  transform="matrix(1 0 0 1 868.9233 -154.4094)">
</image>
</svg>
