<?xml version="1.0" encoding="UTF-8" standalone="no"?>
<svg
   xmlns:dc="http://purl.org/dc/elements/1.1/"
   xmlns:cc="http://creativecommons.org/ns#"
   xmlns:rdf="http://www.w3.org/1999/02/22-rdf-syntax-ns#"
   xmlns:svg="http://www.w3.org/2000/svg"
   xmlns="http://www.w3.org/2000/svg"
   viewBox="0 0 1987 1571"
   height="1571"
   width="1987"
   id="svg815"
   version="1.1">
  <metadata
     id="metadata821">
    <rdf:RDF>
      <cc:Work
         rdf:about="">
        <dc:format>image/svg+xml</dc:format>
        <dc:type
           rdf:resource="http://purl.org/dc/dcmitype/StillImage" />
        <dc:title></dc:title>
      </cc:Work>
    </rdf:RDF>
  </metadata>
  <defs
     id="defs819" />
  <g
     id="g963">
    <path
       style="fill:#c9ad79"
       d="m 1433.1429,347.60288 c -21.7097,-29.01727 -44.7687,-51.93536 -66.944,-66.53491 -17.7778,-11.7044 -35.9822,-19.76785 -55.5151,-24.5899 -16.4354,-4.05738 -26.012,-5.12519 -45.9648,-5.12519 -35.637,0 -65.3479,5.87877 -131.5201,26.02331 -61.5561,18.7393 -83.7845,24.41937 -114.5,29.25847 -19.98306,3.14824 -59.31051,3.14851 -76.65021,5.3e-4 -27.8803,-5.0616 -50.5709,-14.91867 -70.9204,-30.8087 -32.4468,-25.33634 -51.1039,-66.19737 -49.0722,-107.47361 3.148,-63.95462 49.5832,-114.285751 121.6428,-131.848588 35.0554,-8.54393 68.07501,-9.28265 114.93761,-2.57141 62.6662,8.97451 120.5825,29.461977 174.9745,61.895974 84.1263,50.164654 152.1852,127.562994 190.9812,217.189014 9.2763,21.43004 16.7722,42.33501 15.18,42.33501 -0.457,0 -3.4402,-3.4875 -6.6293,-7.75 z"
       id="path911" />
    <path
       style="fill:#bbbb1b"
       d="m 732.46127,842.4692 c -9.1135,-0.9755 -25.7202,-4.5634 -34.5568,-7.4661 -43.7659,-14.3763 -81.4118,-47.1176 -114.1329,-99.2633 -10.0817,-16.0666 -24.2921,-43.8556 -30.758,-60.1483 -15.4163,-38.84636 -26.5644,-83.83024 -31.2258,-126 -2.3722,-21.46051 -1.5354,-102.5 1.0583,-102.5 0.3879,0 4.9342,5.2875 10.1028,11.75 12.4528,15.57018 44.6385,47.56044 59.0124,58.65405 41.2718,31.85303 72.8068,47.58398 146.5,73.08039 49.124,16.99591 72.7961,27.40018 87.6018,38.50242 9.3546,7.01466 23.7888,22.4611 29.3961,31.45752 5.8353,9.36243 11.6905,22.73463 14.5418,33.21112 3.0427,11.1796 3.8759,39.1752 1.5363,51.6194 -3.2146,17.0982 -10.5189,33.9942 -20.6554,47.7792 -6.3273,8.6048 -22.1532,23.8459 -30.1032,28.9909 -13.3139,8.6163 -29.9881,15.1731 -46.8913,18.4393 -8.2368,1.5915 -33.4713,2.7449 -41.4261,1.8934 z"
       id="path909" />
  </g>
  <path
     style="fill:#515ba2"
     d="m 140,1539.4975 c -15.07657,-2.2762 -29.37882,-6.6629 -41.5,-12.7286 -20.353132,-10.185 -38.995961,-28.0787 -49.768693,-47.7689 -7.614826,-13.9182 -13.758727,-37.7453 -12.828199,-49.75 0.07478,-0.9648 5.911424,-1.25 25.57784,-1.25 h 25.480948 l 0.487193,2.25 c 6.037297,27.882 15.586341,43.3371 33.499401,54.2187 10.28505,6.2478 19.81213,8.7732 35.10133,9.3042 11.51367,0.4 14.81963,0.1534 22,-1.641 13.67795,-3.4181 24.17681,-9.1595 32.98383,-18.0375 C 223.35269,1461.676 228,1450.391 228,1432.8952 c 0,-16.5402 -5.4513,-28.8647 -17.57661,-39.7378 -8.75403,-7.8499 -19.82703,-12.699 -59.42339,-26.0228 -19.525,-6.5699 -39.775,-13.8253 -45,-16.1229 -36.015218,-15.8376 -56,-45.2219 -56,-82.3386 0,-46.1689 26.915331,-83.9488 70.5,-98.9578 30.17985,-10.3928 59.25007,-9.6195 87.97851,2.3401 27.61786,11.4974 53.25548,39.3468 61.03485,66.3005 2.27152,7.8703 4.4341,20.6174 3.78483,22.3094 -0.42892,1.1178 -5.20135,1.3192 -26.08859,1.1014 l -25.56365,-0.2667 -1.75612,-7.1461 c -2.74514,-11.1706 -7.17094,-18.8672 -15.77587,-27.4348 -13.11551,-13.0587 -28.3213,-18.751 -47.02619,-17.6043 -26.28875,1.6116 -46.60255,16.1081 -53.25286,38.0028 -1.71251,5.6381 -2.00586,8.6241 -1.6033,16.3203 0.67088,12.8259 4.80598,21.4697 14.5382,30.3899 8.98658,8.2367 18.30093,12.5657 52.73019,24.5068 62.17917,21.5657 76.37723,29.0156 91.45262,47.9864 13.40211,16.8652 20.25216,36.796 20.27061,58.979 0.0267,32.1216 -12.68708,61.9286 -35.37403,82.9333 -26.855,24.8636 -67.64009,36.8331 -105.8492,31.0642 z m 830.92935,-1.8649 c -6.57802,-1.7736 -13.28085,-6.0011 -17.26364,-10.8882 -4.55451,-5.5887 -48.37118,-77.4483 -140.23335,-229.9836 -13.1628,-21.8566 -24.49486,-39.7441 -25.18236,-39.75 -0.99405,-0.01 -1.25,28.4287 -1.25,138.8822 0,125.7298 -0.14991,138.9505 -1.58179,139.5 -0.86998,0.3339 -12.47998,0.607 -25.8,0.607 -17.50305,0 -24.55094,-0.3327 -25.41821,-1.2 -1.54181,-1.5418 -1.74219,-328.9142 -0.20706,-338.3 2.0651,-12.626 9.89889,-23.4086 20.6933,-28.4825 14.1302,-6.642 31.44794,-3.9772 41.78768,6.4301 4.80882,4.8403 34.98798,54.0938 145.09015,236.7926 11.51476,19.1071 21.49843,34.7446 22.18593,34.75 0.99402,0.01 1.25,-28.3116 1.25,-138.2902 0,-106.2333 0.27824,-138.5782 1.2,-139.5 0.86829,-0.8683 8,-1.2 25.8,-1.2 17.8,0 24.9317,0.3317 25.8,1.2 1.5724,1.5724 1.753,331.5896 0.186,339.9135 -4.1442,22.0152 -25.41036,35.3556 -47.05665,29.5191 z M 1277,1538.3013 c -71.5154,-7.7372 -132.4488,-54.7937 -157.3874,-121.5443 -27.3208,-73.1269 -4.9194,-158.5521 54.6445,-208.3799 44.3724,-37.1196 102.1096,-51.7118 159.2429,-40.2464 76.1297,15.2775 133.8697,75.3071 146.5577,152.3693 12.2203,74.2214 -18.9874,146.0386 -81.5577,187.6859 -23.4834,15.6308 -52.3232,26.0397 -82.4738,29.7666 -7.9506,0.9828 -31.2417,1.191 -39.0262,0.3488 z m 47,-52.1578 c 12.1852,-2.8262 17.0851,-4.5911 29.682,-10.6909 42.2225,-20.4454 70.3313,-62.3319 74.2549,-110.6514 3.464,-42.658 -10.7015,-83.3531 -38.9369,-111.8595 -18.3477,-18.5238 -42.7741,-31.3356 -69.7301,-36.574 -10.9536,-2.1286 -36.5936,-2.3867 -47.2699,-0.4757 -17.6925,3.1667 -36.9917,11.2551 -51.5,21.5839 -60.8064,43.2893 -76.5788,130.1415 -34.981,192.6262 21.4189,32.1738 53.6593,52.1652 93.981,58.2751 7.4879,1.1347 36.1887,-0.306 44.5,-2.2337 z m -997.52083,48.8228 c -0.62018,-1.0035 128.54181,-343.0852 132.84259,-351.8297 6.29134,-12.7918 23.92422,-21.0849 38.45516,-18.0862 9.86094,2.035 17.37762,6.6574 22.68414,13.9496 3.94016,5.4146 136.13413,353.0066 135.18946,355.4683 -0.50703,1.3213 -4.12862,1.5296 -26.36914,1.5164 -14.17976,-0.01 -26.38821,-0.3999 -27.12989,-0.8699 -0.74169,-0.47 -9.74614,-23.7506 -20.0099,-51.7347 l -18.66138,-50.8801 -71.6122,-0.2566 c -56.53436,-0.2025 -71.82548,0.01 -72.62522,1 -0.55716,0.6911 -9.17785,23.5013 -19.15709,50.6893 -9.97924,27.188 -18.63604,50.0255 -19.23733,50.75 -1.39154,1.6767 -53.34075,1.9477 -54.3692,0.2836 z M 545,1383.0238 c 0,-1.7589 -52.06665,-143.4904 -53.08797,-144.5118 -0.66042,-0.6604 -1.28595,-0.525 -1.8591,0.4024 -2.22109,3.5938 -52.14098,142.4138 -51.66153,143.6632 0.46245,1.2051 8.64655,1.4224 53.57722,1.4224 33.82705,0 53.03138,-0.3535 53.03138,-0.9762 z m 1029.2358,152.1431 c -1.0124,-0.6427 -1.2115,-34.6388 -1,-170.756 l 0.2642,-169.9535 3.2867,-6.6761 c 5.5223,-11.2167 14.9544,-17.8844 27.9601,-19.7651 10.4489,-1.511 175.5298,-1.3396 177.0532,0.1838 1.7023,1.7023 1.7023,45.8977 0,47.6 -0.9125,0.9125 -19.6,1.2 -78,1.2 H 1627 v 59.5 59.5 h 76.8 c 58.4,0 77.0875,0.2875 78,1.2 1.7023,1.7023 1.7023,45.8977 0,47.6 -0.9125,0.9125 -19.6,1.2 -78,1.2 H 1627 v 73.8 c 0,56.0667 -0.2883,74.0883 -1.2,75 -1.3882,1.3882 -49.4169,1.7299 -51.5642,0.3669 z M 1881.2,1534.8 c -1.7457,-1.7457 -1.7457,-364.8543 0,-366.6 0.8673,-0.8673 7.9152,-1.2 25.4182,-1.2 13.32,0 24.93,0.2731 25.8,0.607 1.4344,0.5504 1.5818,17.6826 1.5818,183.893 0,166.2104 -0.1474,183.3426 -1.5818,183.893 -0.87,0.3339 -12.48,0.607 -25.8,0.607 -17.503,0 -24.5509,-0.3327 -25.4182,-1.2 z M 965.5,973.39569 c -45.75136,-3.49537 -81.39522,-10.16079 -117.93452,-22.0538 -43.31121,-14.09717 -77.81598,-30.61198 -114.98655,-55.0353 -13.7409,-9.02861 -34.47579,-24.26748 -36.72614,-26.99147 -1.64944,-1.99659 -0.9679,-1.86764 13.79371,2.60991 45.65599,13.84856 109.04567,15.59651 163.70685,4.51417 55.89704,-11.3329 100.37128,-35.02494 139.65515,-74.39621 22.6233,-22.67369 40.7945,-47.12065 60.1364,-80.90602 16.0439,-28.02441 27.433,-52.18856 65.5785,-139.13697 48.1683,-109.79412 87.669,-160.93614 146.7766,-190.03333 34.4951,-16.98105 69.8147,-23.81812 116.5,-22.55172 22.2425,0.60336 42.0982,2.34995 43.5819,3.83364 1.2776,1.2776 8.3284,31.75586 10.8697,46.98622 11.2865,67.64167 8.9975,130.9907 -7.0888,196.18197 -27.928,113.18127 -98.5166,213.38914 -195.8628,278.04765 -20.7413,13.77661 -33.8436,21.33558 -54.879,31.66075 -48.7333,23.92058 -101.7522,39.08506 -158.7326,45.4007 -13.5847,1.50571 -62.92196,2.74584 -74.3884,1.86981 z"
     id="path907" />
</svg>
