<?xml version="1.0" encoding="utf-8"?>
<!-- Generator: Adobe Illustrator 25.3.0, SVG Export Plug-In . SVG Version: 6.00 Build 0)  -->
<svg version="1.1" id="Layer_1" xmlns="http://www.w3.org/2000/svg" xmlns:xlink="http://www.w3.org/1999/xlink" x="0px" y="0px"
	 viewBox="0 0 343.2 52.8" style="enable-background:new 0 0 343.2 52.8;" xml:space="preserve">
<g>
	<path d="M311.8,0l-3.4,6.1l-26.7,45.4h6.9l7.1-13.2h25.6l7.7,13.2h14.2L311.8,0z M297.8,35.2L308.4,17l10.8,18.2H297.8z"/>
	<polygon points="34.9,34.5 53.9,1.5 60.3,1.5 31.2,52.8 0,1.5 14.3,1.5 	"/>
	<polygon points="115.5,48.3 151.4,48.3 151.4,51.5 101.5,51.5 101.5,1.5 150.9,1.5 150.9,4.8 115.5,4.8 115.5,24 149,24 149,27.2 
		115.5,27.2 	"/>
	<path d="M208.2,51.5h-13.7v-50h32c6.3,0,11.4,1.3,15.1,4.2c3.7,2.9,5.5,6.1,5.5,10.3c0,3.7-1.9,6.6-5.5,8.5
		c-2.9,1.8-7.7,2.9-13.5,3.4l19.3,23.5h-15.1l-20.1-25.6h0.8c6.6,0,11.3-0.8,14.8-2.6c3.7-1.8,5.6-4.5,5.6-8.2
		c0-3.2-1.1-5.5-3.7-7.7c-2.9-2.1-7.6-3.4-14-3.4h-7.4L208.2,51.5L208.2,51.5z"/>
</g>
</svg>
