<?xml version="1.0" encoding="utf-8"?>
<!-- Generator: Adobe Illustrator 18.1.1, SVG Export Plug-In . SVG Version: 6.00 Build 0)  -->
<!DOCTYPE svg PUBLIC "-//W3C//DTD SVG 1.1//EN" "http://www.w3.org/Graphics/SVG/1.1/DTD/svg11.dtd">
<svg version="1.1" id="Layer_1" xmlns="http://www.w3.org/2000/svg" xmlns:xlink="http://www.w3.org/1999/xlink" x="0px" y="0px"
	 width="800px" height="800px" viewBox="0 0 800 800" enable-background="new 0 0 800 800" xml:space="preserve">
<path fill-rule="evenodd" clip-rule="evenodd" fill="#291770" d="M399.373,130.567c86.718,0,157.048,70.329,157.048,157.048
	c0,86.718-70.33,157.048-157.048,157.048c-86.718,0-157.048-70.33-157.048-157.048C242.325,200.897,312.655,130.567,399.373,130.567
	 M399.373,112.601c96.638,0,175.014,78.376,175.014,175.014s-78.376,175.014-175.014,175.014
	c-96.637,0-175.013-78.376-175.013-175.014S302.735,112.601,399.373,112.601z"/>
<path fill-rule="evenodd" clip-rule="evenodd" fill="#291770" d="M290.413,225.064h55.534c10.929,25.028,15.309,53.615,16.73,83.809
	c7.054-21.124,9.883-51.093,11.402-83.809h38.633c7.882,22.348,11.292,47.127,12.513,73.094
	c6.277-18.794,9.206-44.591,10.846-73.094h43.885c-6.4,54.824,8.379,93.15,30.821,125.512h-54.234
	c-4.858-12.764-8.411-27.582-9.578-46.201c-3.355,16.656-7.2,32.322-11.936,46.201h-34.811c1.838-13.952,2.001-29.585,0.923-46.453
	c-6.911,19.414-14.896,35.612-24.661,46.453h-45.786C332.309,296.246,314.975,257.659,290.413,225.064 M469.765,162.992
	c43.411,24.581,72.725,71.188,72.725,124.624c0,48.195-23.841,90.827-60.365,116.764c-62.28,34.339-115.793-54.895-152.264,8.343
	c-43.895-24.446-73.605-71.31-73.605-125.108c0-44.395,20.23-84.079,51.969-110.332v0.001
	C376.382,124.487,434.137,227.769,469.765,162.992z"/>
<path fill="#291770" d="M691.997,564.031c0-6.071,4.923-10.994,10.994-10.994c6.071,0,10.994,4.923,10.994,10.994v39.021
	l12.346-11.367c0.251-0.255,0.516-0.5,0.796-0.732l36.004-33.145c4.458-4.101,11.401-3.813,15.503,0.644
	c4.101,4.458,3.813,11.401-0.645,15.503l-29.351,27.02l37.521,53.7c3.463,4.956,2.25,11.782-2.706,15.244
	c-4.956,3.462-11.783,2.25-15.245-2.705l-35.827-51.274l-18.398,16.936v28.131c0,6.071-4.923,10.994-10.994,10.994
	c-6.071,0-10.994-4.923-10.994-10.994V564.031z M614.314,649.916c-0.292-0.238-0.372-0.277,0,0.139V649.916z M615.114,650.586
	l-0.8-0.67v0.139l0.328,0.362C615.548,651.391,615.46,651.18,615.114,650.586z M594.828,565.58c0-6.071,4.923-10.994,10.994-10.994
	c6.071,0,10.994,4.923,10.994,10.994v82.203v0.214h46.227c6.048,0,10.951,4.903,10.951,10.952c0,6.048-4.903,10.951-10.951,10.951
	h-46.844l-1.885,0.005c-7.766,0.026-11.473,0.035-15.734-4.542c-3.912-4.213-3.854-7.625-3.747-14.147
	c0.001-0.119-0.004,0.347-0.004-3.433V565.58z M544.729,564.031c0-6.071,4.923-10.994,10.994-10.994
	c6.072,0,10.994,4.923,10.994,10.994v96.977c0,6.071-4.922,10.994-10.994,10.994c-6.071,0-10.994-4.923-10.994-10.994V564.031z
	 M433.323,660.462c0,6.072-4.922,10.994-10.994,10.994c-6.072,0-10.994-4.922-10.994-10.994v-85.73v-2.066
	c-0.125-4.404-0.204-6.844,2.952-10.593c2.831-3.362,5.778-4.388,10.438-4.555v-0.002c1.891-0.069,2.297-0.066,2.901-0.066h5.543
	v0.042l0.944-0.003c4.702-0.017,7.029-0.028,10.686,2.751h0.043c3.576,2.722,4.21,4.939,5.448,9.303l0.012-0.003l0.327,1.145
	l-0.028,0.007l15.441,55.018l14.965-52.772l0.015,0.004c0.205-0.703,0.211-0.853,0.619-2.354
	c3.561-13.09,3.637-13.364,19.015-13.364c4.483,0,1.472,0.037,2.611,0.025c6.558-0.07,9.873-0.102,13.987,3.959
	c4.208,4.148,4.185,7.524,4.129,14.319l-0.012,2.322h0.043v82.717c0,6.072-4.923,10.994-10.994,10.994
	c-6.071,0-10.994-4.923-10.994-10.994v-70.68l-19.864,64.659c-0.349,1.188-0.335,1.201-0.925,3.259
	c-2.649,9.25-3.975,13.785-12.981,13.528h-0.043c-8.553-0.276-9.768-4.636-12.144-13.182c-0.373-1.339-0.815-2.924-1.079-3.839
	l-19.066-62.72V660.462z M356.658,622.587l-13.833-34.533l-13.998,34.533H356.658z M312.13,663.779
	c-2.276,5.62-8.681,8.33-14.301,6.054c-5.62-2.276-8.331-8.681-6.054-14.301l10.377-25.602c0.113-0.321,0.242-0.638,0.384-0.945
	l25.534-62.994l0.256-0.556c3.367-7.148,7.885-10.99,13.544-11.51c6.717-0.618,11.818,3.048,15.301,10.991l0.129,0.3l36.35,90.743
	c2.253,5.619-0.478,12.004-6.098,14.256c-5.62,2.253-12.003-0.477-14.257-6.097l-7.829-19.543h-45.553L312.13,663.779z
	 M201.559,660.412c0,6.071-4.922,10.993-10.994,10.993c-6.072,0-10.994-4.922-10.994-10.993v-91.458h0.042
	c0-0.579-0.01-1.199-0.017-1.74v-0.042c-0.191-13.461-0.327-19.411,15.569-12.599c3.149,1.344,4.241,2.92,6.352,5.794l-0.007,0.006
	l0.705,0.954l50.858,68.369v-64.709c0-6.071,4.923-10.994,10.994-10.994c6.071,0,10.994,4.923,10.994,10.994v87.405h-0.043
	l0.003,2.164c0.026,10.752,0.012,15.714-9.314,17.681c-7.52,1.584-9.954-1.833-14.465-8.172c-0.79-1.111-1.738-2.443-2.694-3.728
	l-46.988-63.166V660.412z M131.375,564.031c0-6.071,4.922-10.994,10.993-10.994c6.072,0,10.994,4.923,10.994,10.994v96.977
	c0,6.071-4.922,10.994-10.994,10.994c-6.071,0-10.993-4.923-10.993-10.994V564.031z M15.505,570.156
	c-2.086-5.692,0.835-11.999,6.527-14.085c5.692-2.087,12,0.835,14.085,6.527l27.387,74.247l28.22-74.716
	c2.134-5.669,8.461-8.533,14.129-6.399c5.669,2.135,8.533,8.461,6.398,14.13l-34.274,90.743l-0.215,0.515
	c-3.485,7.945-8.583,11.609-15.301,10.991c-5.657-0.52-10.176-4.358-13.544-11.51l-0.386-0.901L15.505,570.156z"/>
</svg>
