<?xml version="1.0" encoding="utf-8"?>
<!-- Generator: Adobe Illustrator 25.2.1, SVG Export Plug-In . SVG Version: 6.00 Build 0)  -->
<svg version="1.1" id="Layer_1" xmlns="http://www.w3.org/2000/svg" xmlns:xlink="http://www.w3.org/1999/xlink" x="0px" y="0px"
	 viewBox="0 0 647 366" style="enable-background:new 0 0 647 366;" xml:space="preserve">
<style type="text/css">
	.st0{fill:url(#SVGID_1_);}
	.st1{fill:#2A398C;}
</style>
<linearGradient id="SVGID_1_" gradientUnits="userSpaceOnUse" x1="266.8142" y1="9.7348" x2="443.9342" y2="219.2548">
	<stop  offset="0" style="stop-color:#DC8C2B"/>
	<stop  offset="0.4148" style="stop-color:#E9A920"/>
	<stop  offset="1" style="stop-color:#FFD90D"/>
</linearGradient>
<path class="st0" d="M277.27,201.98c0,0,43.83,4.44,31.68-17.73c-3.06-9.72-39.09-45.57-85.47-53.25c0,0,57.84-8.28,100.38,34.68
	c0,0-29.76-61.44-2.7-97.92c17.4-21.12,40.44-40.2,106.54-47.58c0,0-88.78,9.42-62.14,99.18c5.4,21.54,43.02,75.06,20.4,100.56
	C372.4,235.37,330.46,231.59,277.27,201.98z"/>
<path class="st1" d="M23.86,257.96h18.6c0,0,5.76,0.84,8.61,9.18c1.77,4.74,22.11,61.38,22.11,61.38l25.29-70.56h9.15l-32.18,91.01
	H63.03l-29.69-83.18c0,0-2-5.92-9.48-6.82V257.96z"/>
<path class="st1" d="M119.03,258.99h16v83.32v0.73c0,0,0.59,2.62,4.31,5.94h-13.69c0,0-6.05-1.67-6.62-8.04
	C119.03,339.39,119.03,258.99,119.03,258.99z"/>
<polygon class="st1" points="150.1,258.99 172.74,258.99 219.69,325.03 220.98,325.03 220.98,258.99 229.98,258.99 229.98,343.37 
	234.29,348.99 218.02,348.99 164.73,274.09 164.01,274.09 164.01,348.99 154.99,348.99 154.99,266.78 "/>
<path class="st1" d="M304.6,278.84c-1.56-18.48-25.98-19.84-25.98-19.84h-38.55c5.1,4.06,5.88,10,5.88,10v71.64
	c-0.12,6.69,6,8.36,6,8.36h14.75c-5.31-4.22-5.72-8.47-5.72-8.47v-33.61h19.62C307.6,302.87,305.44,286.52,304.6,278.84z
	 M289,283.28c-0.06,7.32-3.14,15.69-12.68,15.69c-8.14,0.03-15.28,0-15.28,0V267h17.06C278.1,267,289.57,268.91,289,283.28z"/>
<path class="st1" d="M313.14,259h53.08c0,0,8.58,0.94,7.86,13.33c0,0-2.65-3.14-8.22-3.35H334.9V299h35.16v8.94h-35.19v31.11h35.64
	c0,0,4.08,0.3,6.42-3.66c0,0,0.92,13.29-5.94,13.6H319v-78.43C319,270.56,318.49,263.9,313.14,259z"/>
<path class="st1" d="M464.7,342.15l-25.66-79.11l1.04-2.05V258h-21.64l-14.69,44.96c-10.56,0.76-19.95-6.06-19.95-6.06
	c2.82,14.1,17.64,14.46,17.64,14.46l-11.88,37.62h10.02L411.1,312h21.33c8.46-0.4,12.63,20.18,13.83,25.4
	c2.78,9.98,9.3,11.58,9.3,11.58H469C465.82,345.4,464.7,342.15,464.7,342.15z M432.88,302.98h-19.6l11.44-33.17l11.25,34.2
	C434.88,303.13,432.88,302.98,432.88,302.98z"/>
<path class="st1" d="M538.6,322.64c-5.82-13.2-14.52-17.23-14.52-17.23v-1.25c13.44-3.48,15.9-12.9,15.9-21.81
	c-0.99-20.97-22.98-23.37-22.98-23.37h-42c5.82,5.34,5.49,11.7,5.49,11.7v78.3h15.54v-39.96h5.91
	c12.57-0.12,18.66,13.75,23.37,22.29c9.27,18.63,16.83,17.69,16.83,17.69h14.85C548.32,341.96,540.64,326.51,538.6,322.64z
	 M511.18,299.99H496v-32.97h13.65c12.99,0.6,14.67,10.88,14.43,15.78C524.98,298.52,511.18,299.99,511.18,299.99z"/>
<path class="st1" d="M563.11,259.04h14.31c0,0,6.72,1.42,6.66,9.49v71.44h41.91l-1.02,9.01h-56.39v-79.5
	C568.58,269.48,568.69,263.77,563.11,259.04z"/>
</svg>
