<svg id="Layer_1" data-name="Layer 1" xmlns="http://www.w3.org/2000/svg" viewBox="0 0 350 400"><path d="M85,203.05l71.15,27,2.57-1.67L161,187.5l-22-8.35,13.42-66.9,13.28-6L171.79,0h-1.33L85,201.58Z"/><path d="M265,203.05l-71.15,27-2.56-1.67L189,187.5l22-8.35-13.42-66.9-13.28-6L178.22,0h1.32L265,201.58Z"/><polygon points="195.63 166.14 183.9 171.5 175 194.06 166.1 171.5 154.37 166.14 168.45 131.67 175 115.64 181.55 131.67 195.63 166.14"/><path d="M87.42,275v75H74.88q-9.34-8.28-28-25l-3.2-2.84c-.63.63-1.65,1.58-3.07,2.84q-9.36,8.28-28.16,25H0V275H12.42v58.32L37.5,311.08v-11H49.92v11q8.4,7.46,25,22.24V275Z"/><path d="M156.45,287.54q8.76,20.82,26.38,62.46H169.35q-2.61-6.27-7.93-18.81h-44q-2.61,6.27-7.93,18.81H96q8.76-20.82,26.38-62.46,1.78-4.14,5.33-12.42h23.42c.87,2.05,1.77,4.1,2.72,6.15S155.59,285.49,156.45,287.54Zm-33.71,31.23H156.1q-4.38-10.41-13.13-31.23h-7.1q-3.31,7.81-6.62,15.62T122.74,318.77Z"/><path d="M203,287.42v18.81h37.38v12.42H203v31.23H190.42V275h75v12.42Z"/><path d="M350,287.54H318.77V350H306.23V287.54H275V275h75Z"/><path d="M3.75,388.54a2,2,0,0,0,.73.52,2.57,2.57,0,0,0,.9.15h7.68a4.05,4.05,0,0,1,1,.12,4.63,4.63,0,0,1,1,.29,4.31,4.31,0,0,1,.9.49,4.91,4.91,0,0,1,.82.64c.11.12.22.23.32.35l.29.38c.09.13.18.27.26.41a3.55,3.55,0,0,1,.23.4c.06.14.11.26.15.38a2.13,2.13,0,0,1,.14.38,3,3,0,0,1,.09.38,2.88,2.88,0,0,1,.09.4V394a.6.6,0,0,1,0,.2v.21a.47.47,0,0,1,0,.17,5.27,5.27,0,0,1-.41,2.07,4.88,4.88,0,0,1-1.19,1.74,5.72,5.72,0,0,1-1.72,1.19,5.43,5.43,0,0,1-2.06.38H0v-3.08H13.06a2.49,2.49,0,0,0,.87-.15,2.31,2.31,0,0,0,.75-.52,2.26,2.26,0,0,0,.5-.73,2.19,2.19,0,0,0,.17-.9v-.2a.57.57,0,0,1,0-.18c0-.08,0-.14-.05-.2a.32.32,0,0,0-.06-.18,3,3,0,0,0-.32-.64,2.91,2.91,0,0,0-.5-.49,2.15,2.15,0,0,0-.64-.29,1.92,1.92,0,0,0-.69-.12H5.38A5.28,5.28,0,0,1,3.49,392a5,5,0,0,1-1.63-1A5.13,5.13,0,0,1,.64,389.5a5.31,5.31,0,0,1-.58-1.83.57.57,0,0,1,0-.18.81.81,0,0,0,0-.2v-.38a5.59,5.59,0,0,1,.38-2.06,5.49,5.49,0,0,1,1.19-1.75,5.15,5.15,0,0,1,1.74-1.16,5.17,5.17,0,0,1,2.07-.41H18.44v3.08H5.38a2.19,2.19,0,0,0-.9.18,1.75,1.75,0,0,0-.73.49,2.35,2.35,0,0,0-.52.76,2.12,2.12,0,0,0-.18.87,2.19,2.19,0,0,0,.18.9A2,2,0,0,0,3.75,388.54Z"/><path d="M86.74,384.61H79.06V400H76V384.61H68.3v-3.08H86.74Z"/><path d="M155.09,394.56a5.13,5.13,0,0,1-.41,2.07,5.06,5.06,0,0,1-1.16,1.74,5.11,5.11,0,0,1-3.81,1.57H142a5.07,5.07,0,0,1-3.81-1.57,5.07,5.07,0,0,1-1.57-3.81V381.5h3.08v13.06a2.57,2.57,0,0,0,.15.9,2.35,2.35,0,0,0,.52.76,2.23,2.23,0,0,0,.73.49,2.19,2.19,0,0,0,.9.18h7.68a2.12,2.12,0,0,0,.87-.18,2.55,2.55,0,0,0,.75-.49,2,2,0,0,0,.5-.76,2.37,2.37,0,0,0,.17-.9V381.5h3.09v13.06Z"/><path d="M224,387.7h0a9.22,9.22,0,0,1,.53,2.38c0,.22,0,.42,0,.61a8.7,8.7,0,0,1-.21,1.86,8.38,8.38,0,0,1-.75,2.33,9.64,9.64,0,0,1-1.4,2l-.17.17a2,2,0,0,0-.18.21l-.17.17a1.2,1.2,0,0,1-.21.17,9,9,0,0,1-1.33,1,9.39,9.39,0,0,1-1.49.73,9.06,9.06,0,0,1-1.62.46,8.91,8.91,0,0,1-1.66.15H206.1V381.53h9.19a8.91,8.91,0,0,1,1.66.15,9.06,9.06,0,0,1,1.62.46,9.39,9.39,0,0,1,1.49.73,9,9,0,0,1,1.33,1,1.2,1.2,0,0,1,.21.17l.17.17.18.21.17.17c.21.24.41.47.58.7s.32.49.5.76.29.53.4.78A8.77,8.77,0,0,1,224,387.7ZM221.39,391v-.37a4.93,4.93,0,0,0-.23-1.55,6,6,0,0,0-1.57-2.64,6.25,6.25,0,0,0-1.25-1,4.46,4.46,0,0,0-.73-.35,5.07,5.07,0,0,0-.75-.26l-.79-.15a4.93,4.93,0,0,0-.78-.06h-6.14v12.31h6.14a4.93,4.93,0,0,0,.78-.06l.79-.15a5.07,5.07,0,0,0,.75-.26,3.77,3.77,0,0,0,.73-.35,6.25,6.25,0,0,0,1.25-1,6,6,0,0,0,1.57-2.64A4.93,4.93,0,0,0,221.39,391Z"/><path d="M275,381.5h3.09V400H275Z"/><path d="M349.45,387.64a9.58,9.58,0,0,1,.52,2.41,6.08,6.08,0,0,1,0,.61,9,9,0,0,1-.2,1.84,8.78,8.78,0,0,1-.76,2.32,8.43,8.43,0,0,1-1.4,2l-.17.17a1.2,1.2,0,0,0-.17.21,1.93,1.93,0,0,0-.21.17l-.17.18a11.51,11.51,0,0,1-1.34,1,8.85,8.85,0,0,1-1.51.75,9.35,9.35,0,0,1-3.29.58h-3a10.05,10.05,0,0,1-1.69-.14,8.7,8.7,0,0,1-1.6-.47,6.8,6.8,0,0,1-1.51-.72,9.43,9.43,0,0,1-1.34-1l-.2-.18c-.06-.06-.12-.11-.17-.17L331,397c-.06,0-.11-.11-.17-.17a8.78,8.78,0,0,1-1.78-2.85,9.62,9.62,0,0,1,0-6.58,9,9,0,0,1,1.78-2.85l.17-.17.18-.2.17-.18.2-.17a8.11,8.11,0,0,1,1.34-1,8.52,8.52,0,0,1,1.51-.76,10.32,10.32,0,0,1,1.6-.43,9.08,9.08,0,0,1,1.69-.15h3a8.83,8.83,0,0,1,1.66.15,7,7,0,0,1,1.63.43,9.88,9.88,0,0,1,2.85,1.75l.17.17.21.18a1.63,1.63,0,0,0,.17.2l.17.17a6.6,6.6,0,0,1,.56.7,7.09,7.09,0,0,1,.49.76,6.3,6.3,0,0,1,.44.78C349.24,387.08,349.35,387.35,349.45,387.64Zm-2.53,3.26v-.35a6,6,0,0,0-.5-2.3,6.08,6.08,0,0,0-1.36-1.92,6.26,6.26,0,0,0-1.95-1.31,6.16,6.16,0,0,0-2.33-.44h-3a5.74,5.74,0,0,0-1.6.21,6.26,6.26,0,0,0-1.48.61,6.41,6.41,0,0,0-1.28,1,6.25,6.25,0,0,0-1,1.25,5.08,5.08,0,0,0-.35.7,2.94,2.94,0,0,0-.23.69,7.4,7.4,0,0,0-.18.76,4.51,4.51,0,0,0-.06.76v.35a5.9,5.9,0,0,0,.5,2.29,6.08,6.08,0,0,0,1.36,1.92,5.88,5.88,0,0,0,1.95,1.31,6.19,6.19,0,0,0,2.33.44h3a6.16,6.16,0,0,0,2.33-.44,6.51,6.51,0,0,0,3.31-3.23A5.9,5.9,0,0,0,346.92,390.9Z"/></svg>