<?xml version="1.0" encoding="utf-8"?>
<!-- Generator: Adobe Illustrator 24.0.0, SVG Export Plug-In . SVG Version: 6.00 Build 0)  -->
<svg version="1.1" id="Layer_1" xmlns="http://www.w3.org/2000/svg" xmlns:xlink="http://www.w3.org/1999/xlink" x="0px" y="0px"
	 viewBox="0 0 512 512" style="enable-background:new 0 0 512 512;" xml:space="preserve">
<style type="text/css">
	.st0{fill:#FFFFFF;}
</style>
<title>x</title>
<path class="st0" d="M307.5,256l91.2-91.2c14.2-14.2,14.2-37.3,0-51.5s-37.3-14.2-51.5,0L256,204.5l-91.2-91.3
	c-14.2-14.2-37.3-14.2-51.5,0s-14.2,37.3,0,51.5l91.3,91.2l-91.3,91.2c-5.8,5.9-9.1,13.3-10.1,20.8c1.1-7.5,4.6-14.6,10.4-20.3
	l91.6-91.6l-91.6-91.6c-12.4-12.8-13.4-32.5-3-46.4c0.3-0.4,0.6-0.8,1-1.3c0.2-0.3,0.4-0.5,0.6-0.7c0.2-0.2,0.4-0.5,0.6-0.7
	c0.4-0.5,0.8-0.9,1.3-1.3c1.7-1.7,3.6-3.2,5.5-4.5c0.4-0.2,0.7-0.5,1.1-0.7c13.6-8.3,31.7-6.8,43.7,4.8l91.6,91.6l91.6-91.6
	c14-14,36.8-14,50.8,0s14,36.8,0,50.8L306.8,256l91.6,91.6c11.9,11.9,13.7,30.1,5.4,43.9c-0.2,0.4-0.4,0.7-0.7,1.1
	c0,0.1-0.1,0.1-0.1,0.2c-0.2,0.3-0.5,0.7-0.7,1c-0.3,0.4-0.6,0.9-1,1.3c-0.1,0.2-0.3,0.4-0.4,0.5c0,0,0,0,0,0
	c-0.3,0.3-0.5,0.6-0.8,1c-0.1,0.1-0.3,0.3-0.4,0.4c-0.3,0.3-0.6,0.7-0.9,1c0,0-0.1,0-0.1,0.1c-0.7,0.7-1.3,1.3-2,1.9
	c-0.2,0.2-0.5,0.4-0.7,0.6c-1.2,1-2.4,1.9-3.7,2.7c-0.5,0.3-1,0.6-1.5,0.9c-0.2,0.1-0.5,0.3-0.7,0.4c-0.3,0.2-0.6,0.3-0.9,0.5
	c-1.3,0.6-2.6,1.2-3.9,1.7c-0.6,0.2-1.3,0.5-1.9,0.6c-12.3,3.7-26.1,0.7-35.8-9L256,306.8l-91.6,91.6c-0.1,0.2-0.3,0.3-0.5,0.5
	c-3.9,3.8-8.4,6.6-13.3,8.3c5.1-1.7,10-4.5,14.1-8.6l91.2-91.2l91.2,91.2c14.2,14.2,37.3,14.2,51.5,0c14.2-14.2,14.2-37.3,0-51.5
	L307.5,256z"/>
<path class="st0" d="M307.5,256l91.2-91.2c14.2-14.2,14.2-37.3,0-51.5s-37.3-14.2-51.5,0L256,204.5l-91.2-91.3
	c-14.2-14.2-37.3-14.2-51.5,0s-14.2,37.3,0,51.5l91.3,91.2l-91.3,91.2c-5.8,5.9-9.1,13.3-10.1,20.8c0,0.1,0,0.2,0,0.3
	c-1.3,10.8,2.3,22.1,10.7,30.3c10,9.7,24.1,12.6,36.5,8.6c0.1,0,0.2,0,0.3-0.1c5.1-1.7,10-4.5,14.1-8.6l91.2-91.2l91.2,91.2
	c14.2,14.2,37.3,14.2,51.5,0c14.2-14.2,14.2-37.3,0-51.5L307.5,256z M403.1,392.6c0,0.1-0.1,0.1-0.1,0.2c-0.2,0.3-0.5,0.7-0.7,1
	c-0.3,0.4-0.6,0.9-1,1.3c-0.1,0.2-0.3,0.4-0.4,0.5c0,0,0,0,0,0c-0.3,0.3-0.5,0.6-0.8,1c-0.1,0.1-0.3,0.3-0.4,0.4
	c-0.3,0.3-0.6,0.7-0.9,1c0,0-0.1,0-0.1,0.1c-0.7,0.7-1.3,1.3-2,1.9c-0.2,0.2-0.5,0.4-0.7,0.6c-1.2,1-2.4,1.9-3.7,2.7
	c-0.5,0.3-1,0.6-1.5,0.9c-0.2,0.1-0.5,0.3-0.7,0.4c-0.3,0.2-0.6,0.3-0.9,0.5c-1.3,0.6-2.6,1.2-3.9,1.7c-0.6,0.2-1.3,0.4-1.9,0.6
	c-11.9,3.5-25.3,0.8-34.8-8.6c-0.3-0.2-0.5-0.5-0.7-0.7l-91.9-92L164.1,398c-14.2,13.4-36.6,12.8-50.1-1.4
	c-12.9-13.6-12.9-35,0-48.6l91.9-92L114,164.1c-12.5-12.5-13.7-32.3-3.4-46.1c0.3-0.4,0.6-0.8,1-1.3c0.2-0.3,0.4-0.5,0.6-0.7
	c0.2-0.2,0.4-0.5,0.6-0.7c0.4-0.5,0.8-0.9,1.3-1.3c1.7-1.7,3.6-3.2,5.5-4.5c0.4-0.2,0.7-0.5,1.1-0.7c13.6-8.3,31.7-6.5,43.4,5.2
	l91.9,91.9l91.9-91.9c14-13.6,36.5-13.3,50.1,0.7c13.4,13.8,13.4,35.7,0,49.4L306.1,256l91.9,92c12,11.6,14,29.7,5.8,43.5
	C403.6,391.9,403.3,392.2,403.1,392.6z M307.5,256l91.2-91.2c14.2-14.2,14.2-37.3,0-51.5s-37.3-14.2-51.5,0L256,204.5l-91.2-91.3
	c-14.2-14.2-37.3-14.2-51.5,0s-14.2,37.3,0,51.5l91.3,91.2l-91.3,91.2c-5.8,5.9-9.1,13.3-10.1,20.8c0,0.1,0,0.2,0,0.3
	c-1.3,10.8,2.3,22.1,10.7,30.3c10,9.7,24.1,12.6,36.5,8.6c0.1,0,0.2,0,0.3-0.1c5.1-1.7,10-4.5,14.1-8.6l91.2-91.2l91.2,91.2
	c14.2,14.2,37.3,14.2,51.5,0c14.2-14.2,14.2-37.3,0-51.5L307.5,256z M403.1,392.6c0,0.1-0.1,0.1-0.1,0.2c-0.2,0.3-0.5,0.7-0.7,1
	c-0.3,0.4-0.6,0.9-1,1.3c-0.1,0.2-0.3,0.4-0.4,0.5c0,0,0,0,0,0c-0.3,0.3-0.5,0.6-0.8,1c-0.1,0.1-0.3,0.3-0.4,0.4
	c-0.3,0.3-0.6,0.7-0.9,1c0,0-0.1,0-0.1,0.1c-0.7,0.7-1.3,1.3-2,1.9c-0.2,0.2-0.5,0.4-0.7,0.6c-1.2,1-2.4,1.9-3.7,2.7
	c-0.5,0.3-1,0.6-1.5,0.9c-0.2,0.1-0.5,0.3-0.7,0.4c-0.3,0.2-0.6,0.3-0.9,0.5c-1.3,0.6-2.6,1.2-3.9,1.7c-0.6,0.2-1.3,0.4-1.9,0.6
	c-11.9,3.5-25.3,0.8-34.8-8.6c-0.3-0.2-0.5-0.5-0.7-0.7l-91.9-92L164.1,398c-14.2,13.4-36.6,12.8-50.1-1.4
	c-12.9-13.6-12.9-35,0-48.6l91.9-92L114,164.1c-12.5-12.5-13.7-32.3-3.4-46.1c0.3-0.4,0.6-0.8,1-1.3c0.2-0.3,0.4-0.5,0.6-0.7
	c0.2-0.2,0.4-0.5,0.6-0.7c0.4-0.5,0.8-0.9,1.3-1.3c1.7-1.7,3.6-3.2,5.5-4.5c0.4-0.2,0.7-0.5,1.1-0.7c13.6-8.3,31.7-6.5,43.4,5.2
	l91.9,91.9l91.9-91.9c14-13.6,36.5-13.3,50.1,0.7c13.4,13.8,13.4,35.7,0,49.4L306.1,256l91.9,92c12,11.6,14,29.7,5.8,43.5
	C403.6,391.9,403.3,392.2,403.1,392.6z M307.5,256l91.2-91.2c14.2-14.2,14.2-37.3,0-51.5s-37.3-14.2-51.5,0L256,204.5l-91.2-91.3
	c-14.2-14.2-37.3-14.2-51.5,0s-14.2,37.3,0,51.5l91.3,91.2l-91.3,91.2c-5.8,5.9-9.1,13.3-10.1,20.8c0,0.1,0,0.2,0,0.3
	c-1.3,10.8,2.3,22.1,10.7,30.3c10,9.7,24.1,12.6,36.5,8.6c0.1,0,0.2,0,0.3-0.1c5.1-1.7,10-4.5,14.1-8.6l91.2-91.2l91.2,91.2
	c14.2,14.2,37.3,14.2,51.5,0c14.2-14.2,14.2-37.3,0-51.5L307.5,256z M403.1,392.6c0,0.1-0.1,0.1-0.1,0.2c-0.2,0.3-0.5,0.7-0.7,1
	c-0.3,0.4-0.6,0.9-1,1.3c-0.1,0.2-0.3,0.4-0.4,0.5c0,0,0,0,0,0c-0.3,0.3-0.5,0.6-0.8,1c-0.1,0.1-0.3,0.3-0.4,0.4
	c-0.3,0.3-0.6,0.7-0.9,1c0,0-0.1,0-0.1,0.1c-0.7,0.7-1.3,1.3-2,1.9c-0.2,0.2-0.5,0.4-0.7,0.6c-1.2,1-2.4,1.9-3.7,2.7
	c-0.5,0.3-1,0.6-1.5,0.9c-0.2,0.1-0.5,0.3-0.7,0.4c-0.3,0.2-0.6,0.3-0.9,0.5c-1.3,0.6-2.6,1.2-3.9,1.7c-0.6,0.2-1.3,0.4-1.9,0.6
	c-11.9,3.5-25.3,0.8-34.8-8.6c-0.3-0.2-0.5-0.5-0.7-0.7l-91.9-92L164.1,398c-14.2,13.4-36.6,12.8-50.1-1.4
	c-12.9-13.6-12.9-35,0-48.6l91.9-92L114,164.1c-12.5-12.5-13.7-32.3-3.4-46.1c0.3-0.4,0.6-0.8,1-1.3c0.2-0.3,0.4-0.5,0.6-0.7
	c0.2-0.2,0.4-0.5,0.6-0.7c0.4-0.5,0.8-0.9,1.3-1.3c1.7-1.7,3.6-3.2,5.5-4.5c0.4-0.2,0.7-0.5,1.1-0.7c13.6-8.3,31.7-6.5,43.4,5.2
	l91.9,91.9l91.9-91.9c14-13.6,36.5-13.3,50.1,0.7c13.4,13.8,13.4,35.7,0,49.4L306.1,256l91.9,92c12,11.6,14,29.7,5.8,43.5
	C403.6,391.9,403.3,392.2,403.1,392.6z M307.5,256l91.2-91.2c14.2-14.2,14.2-37.3,0-51.5s-37.3-14.2-51.5,0L256,204.5l-91.2-91.3
	c-14.2-14.2-37.3-14.2-51.5,0s-14.2,37.3,0,51.5l91.3,91.2l-91.3,91.2c-5.8,5.9-9.1,13.3-10.1,20.8c0,0.1,0,0.2,0,0.3
	c-1.3,10.8,2.3,22.1,10.7,30.3c10,9.7,24.1,12.6,36.5,8.6c0.1,0,0.2,0,0.3-0.1c5.1-1.7,10-4.5,14.1-8.6l91.2-91.2l91.2,91.2
	c14.2,14.2,37.3,14.2,51.5,0c14.2-14.2,14.2-37.3,0-51.5L307.5,256z M403.1,392.6c0,0.1-0.1,0.1-0.1,0.2c-0.2,0.3-0.5,0.7-0.7,1
	c-0.3,0.4-0.6,0.9-1,1.3c-0.1,0.2-0.3,0.4-0.4,0.5c0,0,0,0,0,0c-0.3,0.3-0.5,0.6-0.8,1c-0.1,0.1-0.3,0.3-0.4,0.4
	c-0.3,0.3-0.6,0.7-0.9,1c0,0-0.1,0-0.1,0.1c-0.7,0.7-1.3,1.3-2,1.9c-0.2,0.2-0.5,0.4-0.7,0.6c-1.2,1-2.4,1.9-3.7,2.7
	c-0.5,0.3-1,0.6-1.5,0.9c-0.2,0.1-0.5,0.3-0.7,0.4c-0.3,0.2-0.6,0.3-0.9,0.5c-1.3,0.6-2.6,1.2-3.9,1.7c-0.6,0.2-1.3,0.4-1.9,0.6
	c-11.9,3.5-25.3,0.8-34.8-8.6c-0.3-0.2-0.5-0.5-0.7-0.7l-91.9-92L164.1,398c-14.2,13.4-36.6,12.8-50.1-1.4
	c-12.9-13.6-12.9-35,0-48.6l91.9-92L114,164.1c-12.5-12.5-13.7-32.3-3.4-46.1c0.3-0.4,0.6-0.8,1-1.3c0.2-0.3,0.4-0.5,0.6-0.7
	c0.2-0.2,0.4-0.5,0.6-0.7c0.4-0.5,0.8-0.9,1.3-1.3c1.7-1.7,3.6-3.2,5.5-4.5c0.4-0.2,0.7-0.5,1.1-0.7c13.6-8.3,31.7-6.5,43.4,5.2
	l91.9,91.9l91.9-91.9c14-13.6,36.5-13.3,50.1,0.7c13.4,13.8,13.4,35.7,0,49.4L306.1,256l91.9,92c12,11.6,14,29.7,5.8,43.5
	C403.6,391.9,403.3,392.2,403.1,392.6z M307.5,256l91.2-91.2c14.2-14.2,14.2-37.3,0-51.5s-37.3-14.2-51.5,0L256,204.5l-91.2-91.3
	c-14.2-14.2-37.3-14.2-51.5,0s-14.2,37.3,0,51.5l91.3,91.2l-91.3,91.2c-5.8,5.9-9.1,13.3-10.1,20.8c0,0.1,0,0.2,0,0.3
	c-1.3,10.8,2.3,22.1,10.7,30.3c10,9.7,24.1,12.6,36.5,8.6c0.1,0,0.2,0,0.3-0.1c5.1-1.7,10-4.5,14.1-8.6l91.2-91.2l91.2,91.2
	c14.2,14.2,37.3,14.2,51.5,0c14.2-14.2,14.2-37.3,0-51.5L307.5,256z M403.1,392.6c0,0.1-0.1,0.1-0.1,0.2c-0.2,0.3-0.5,0.7-0.7,1
	c-0.3,0.4-0.6,0.9-1,1.3c-0.1,0.2-0.3,0.4-0.4,0.5c0,0,0,0,0,0c-0.3,0.3-0.5,0.6-0.8,1c-0.1,0.1-0.3,0.3-0.4,0.4
	c-0.3,0.3-0.6,0.7-0.9,1c0,0-0.1,0-0.1,0.1c-0.7,0.7-1.3,1.3-2,1.9c-0.2,0.2-0.5,0.4-0.7,0.6c-1.2,1-2.4,1.9-3.7,2.7
	c-0.5,0.3-1,0.6-1.5,0.9c-0.2,0.1-0.5,0.3-0.7,0.4c-0.3,0.2-0.6,0.3-0.9,0.5c-1.3,0.6-2.6,1.2-3.9,1.7c-0.6,0.2-1.3,0.4-1.9,0.6
	c-11.9,3.5-25.3,0.8-34.8-8.6c-0.3-0.2-0.5-0.5-0.7-0.7l-91.9-92L164.1,398c-14.2,13.4-36.6,12.8-50.1-1.4
	c-12.9-13.6-12.9-35,0-48.6l91.9-92L114,164.1c-12.5-12.5-13.7-32.3-3.4-46.1c0.3-0.4,0.6-0.8,1-1.3c0.2-0.3,0.4-0.5,0.6-0.7
	c0.2-0.2,0.4-0.5,0.6-0.7c0.4-0.5,0.8-0.9,1.3-1.3c1.7-1.7,3.6-3.2,5.5-4.5c0.4-0.2,0.7-0.5,1.1-0.7c13.6-8.3,31.7-6.5,43.4,5.2
	l91.9,91.9l91.9-91.9c14-13.6,36.5-13.3,50.1,0.7c13.4,13.8,13.4,35.7,0,49.4L306.1,256l91.9,92c12,11.6,14,29.7,5.8,43.5
	C403.6,391.9,403.3,392.2,403.1,392.6z"/>
<path class="st0" d="M403.1,392.6c0,0.1-0.1,0.1-0.1,0.2c-0.2,0.3-0.5,0.7-0.7,1c-0.3,0.4-0.6,0.9-1,1.3c-0.1,0.2-0.3,0.4-0.4,0.5
	c0,0,0,0,0,0c-0.3,0.3-0.5,0.6-0.8,1c-0.1,0.1-0.3,0.3-0.4,0.4c-0.3,0.3-0.6,0.7-0.9,1c0,0-0.1,0-0.1,0.1c-0.7,0.7-1.3,1.3-2,1.9
	c-0.2,0.2-0.5,0.4-0.7,0.6c-1.2,1-2.4,1.9-3.7,2.7c-0.5,0.3-1,0.6-1.5,0.9c-0.2,0.1-0.5,0.3-0.7,0.4c-0.3,0.2-0.6,0.3-0.9,0.5
	c-13.1,6.6-29.5,4.6-40.6-6.3c-0.3-0.2-0.5-0.5-0.7-0.7l-91.9-92L164.1,398c-14.2,13.4-36.6,12.8-50.1-1.4
	c-12.9-13.6-12.9-35,0-48.6l91.9-92L114,164.1c-12.9-12.9-13.7-33.5-2.5-47.4c0.2-0.3,0.4-0.5,0.6-0.7c0.2-0.2,0.4-0.5,0.6-0.7
	c0.4-0.5,0.8-0.9,1.3-1.3c1.7-1.7,3.6-3.2,5.5-4.5c13.7-9,32.5-7.5,44.5,4.5l91.9,91.9l91.9-91.9c14-13.6,36.5-13.3,50.1,0.7
	c13.4,13.8,13.4,35.7,0,49.4L306.1,256l91.9,92C410.3,359.9,412.1,378.7,403.1,392.6z"/>
</svg>
