<?xml version="1.0" encoding="utf-8"?>
<!-- Generator: Adobe Illustrator 23.0.0, SVG Export Plug-In . SVG Version: 6.00 Build 0)  -->
<svg version="1.1" id="Layer_1" xmlns="http://www.w3.org/2000/svg" xmlns:xlink="http://www.w3.org/1999/xlink" x="0px" y="0px"
	 viewBox="0 0 512 512" style="enable-background:new 0 0 512 512;" xml:space="preserve">
<path fill="#000" class="st0" d="M431.5,0h-351C36,0,0,36,0,80.5v351C0,476,36,512,80.5,512h351c44.5,0,80.5-36,80.5-80.5v-351
	C512,36,476,0,431.5,0z M144,143.8h224c13.8,0,25,11.2,25,25s-11.2,25-25,25H144c-13.8,0-25-11.2-25-25S130.2,143.8,144,143.8z
	 M390.6,388.6c-12.5,12.5-32.8,12.5-45.3,0L256,299.3l-89.4,89.3c-12.5,12.5-32.8,12.5-45.2,0s-12.5-32.8,0-45.3l112-112
	c6.3-6.3,14.4-9.4,22.6-9.4c8.2,0,16.4,3.1,22.6,9.4l112,112C403.1,355.8,403.1,376.1,390.6,388.6z"/>
</svg>
